<?xml version="1.0" encoding="UTF-8" standalone="no"?>
<!-- Uploaded to: SVG Repo, www.svgrepo.com, Generator: SVG Repo Mixer Tools -->

<svg
   width="400.15625"
   height="390.2652"
   viewBox="0 0 512.2 499.53945"
   version="1.1"
   id="svg1"
   sodipodi:docname="github-svgrepo-com.svg"
   inkscape:version="1.3.2 (091e20e, 2023-11-25, custom)"
   xmlns:inkscape="http://www.inkscape.org/namespaces/inkscape"
   xmlns:sodipodi="http://sodipodi.sourceforge.net/DTD/sodipodi-0.dtd"
   xmlns="http://www.w3.org/2000/svg"
   xmlns:svg="http://www.w3.org/2000/svg">
  <defs
     id="defs1" />
  <sodipodi:namedview
     id="namedview1"
     pagecolor="#505050"
     bordercolor="#eeeeee"
     borderopacity="1"
     inkscape:showpageshadow="0"
     inkscape:pageopacity="0"
     inkscape:pagecheckerboard="0"
     inkscape:deskcolor="#505050"
     inkscape:zoom="0.32"
     inkscape:cx="200"
     inkscape:cy="189.0625"
     inkscape:window-width="1366"
     inkscape:window-height="697"
     inkscape:window-x="-8"
     inkscape:window-y="-8"
     inkscape:window-maximized="1"
     inkscape:current-layer="svg1" />
  <path
     d="M 256.1,0 C 114.6,0 0,114.7 0,256.1 c 0,113.2 73.4,209.2 175.1,243 12.8,2.4 17.5,-5.5 17.5,-12.3 0,-6.1 -0.2,-22.2 -0.3,-43.5 C 121.1,458.8 106,408.9 106,408.9 94.3,379.3 77.5,371.4 77.5,371.4 c -23.2,-15.9 1.8,-15.6 1.8,-15.6 25.7,1.8 39.2,26.4 39.2,26.4 22.8,39.2 60,27.9 74.6,21.3 2.3,-16.6 8.9,-27.9 16.2,-34.3 -56.9,-6.4 -116.7,-28.4 -116.7,-126.6 0,-28 9.9,-50.8 26.4,-68.7 -2.9,-6.5 -11.5,-32.5 2.2,-67.8 0,0 21.5,-6.9 70.4,26.3 20.5,-5.7 42.3,-8.5 64,-8.6 21.8,0.1 43.5,2.9 64,8.6 48.7,-33.1 70.1,-26.3 70.1,-26.3 13.8,35.3 5.1,61.3 2.6,67.8 16.3,17.9 26.3,40.8 26.3,68.7 0,98.4 -59.9,120.1 -116.9,126.4 9,7.7 17.3,23.4 17.3,47.4 0,34.3 -0.3,61.8 -0.3,70.1 0,6.7 4.5,14.7 17.6,12.2 C 438.9,465.2 512.2,369.2 512.2,256.1 512.2,114.7 397.5,0 256.1,0"
     style="fill:#000000;fill-opacity:1"
     id="path1" />
</svg>
