<?xml version="1.0" encoding="UTF-8" standalone="no"?>
<svg
   width="261.5437316894531"
   height="18.0"
   version="1.1"
   id="svg56"
   sodipodi:docname="left_decoration.svg"
   inkscape:version="1.3.2 (091e20e, 2023-11-25, custom)"
   xmlns:inkscape="http://www.inkscape.org/namespaces/inkscape"
   xmlns:sodipodi="http://sodipodi.sourceforge.net/DTD/sodipodi-0.dtd"
   xmlns="http://www.w3.org/2000/svg"
   xmlns:svg="http://www.w3.org/2000/svg">
  <defs
     id="defs56" />
  <sodipodi:namedview
     id="namedview56"
     pagecolor="#505050"
     bordercolor="#eeeeee"
     borderopacity="1"
     inkscape:showpageshadow="0"
     inkscape:pageopacity="0"
     inkscape:pagecheckerboard="0"
     inkscape:deskcolor="#505050"
     inkscape:zoom="1.0896839"
     inkscape:cx="130.77187"
     inkscape:cy="8.7181244"
     inkscape:window-width="1366"
     inkscape:window-height="697"
     inkscape:window-x="-8"
     inkscape:window-y="-8"
     inkscape:window-maximized="1"
     inkscape:current-layer="svg56" />
  <path
     d="m 258.76092,11.81684 c -3.71021,0 -3.71021,-5.5654209 0,-5.5654209 3.71042,0 3.71042,5.5654209 0,5.5654209 z"
     style="fill:#cd853f;stroke:none"
     id="path1" />
  <path
     d="m 248.4807,0.32164215 q -0.0596,0 -0.11304,0.0388959 -0.21393,0.11668892 0.13614,0.56399687 0.36951,0.36951436 0.45703,0.62233986 0.0875,0.2528254 0.18476,0.6709604 0.0972,0.4181351 0.42786,1.196061 l 0.4473,0.1361366 h 1.6142 Q 251.40157,3.0443819 251.0904,2.6359703 250.33192,1.9358379 249.96241,1.70246 249.5929,1.4690822 249.36924,1.3037736 249.14559,1.1384641 248.89276,0.6717085 248.65938,0.32164215 248.4807,0.32164215 Z m 1.01495,3.61735365 0.31117,0.6806846 q 0.45379,-0.045379 0.84059,-0.045379 0.77361,0 1.27926,0.1815166 0.0972,-0.6612372 0.29172,-0.8168224 z m 2.23654,1.4197146 q 0.36951,0.019447 0.38896,0.3500655 -0.0195,0.388963 -0.38896,0.388963 -0.36951,0 -0.38896,-0.388963 0.0195,-0.3306181 0.38896,-0.3500655 z m -0.83627,-0.3306191 q -0.83627,0 -0.97241,0.7779262 -0.13613,0.7779247 0.89462,1.0696476 -0.35007,0.6612362 0,0.8362687 0.12355,0.061777 0.24105,0.061777 0.21541,0 0.41046,-0.2076376 0.30145,-0.3208949 0.53482,-0.9140625 0.23338,-0.593168 0.70014,-0.593168 h -0.33062 q 0.21393,-0.3306191 0.15558,-0.5056521 v 0 q -0.0177,0.00177 -0.0342,0.00177 -0.16555,0 -0.21859,-0.1768013 -0.36952,-0.3500665 -1.38082,-0.3500665 z m -1.14744,0.058345 q -0.29172,0 -0.83627,1.2544038 -0.54455,1.2544053 -1.76978,2.3143287 -1.22523,1.0599235 -1.97399,2.5768782 -0.74875,1.516955 -2.92694,3.325631 3.81183,-1.808676 4.78424,-2.236535 0.97241,-0.427859 3.1506,-2.003158 1.24468,-0.914063 1.24468,-1.4586102 0,-0.4278593 -0.0972,-0.7390305 v -0.019447 q -0.99186,0 -0.99186,-0.9918548 Q 248.99,6.4478059 249.74848,5.0864363 Z m 0.54455,5.9705777 q -0.36952,1.76978 -1.82813,3.909075 0.13857,0.1097 0.30114,0.1097 0.38502,0 0.90465,-0.615351 0,-0.972407 0.70013,-3.403424 z m -0.64179,0.622341 q -1.14744,0.914062 -2.5866,1.730884 v 1.847572 q 0.50565,-0.388962 1.0113,-0.466755 1.38082,-2.255984 1.5753,-3.111701 z m -0.21393,3.811834 q -0.26486,0.336175 -0.54574,0.336175 -0.25534,0 -0.52391,-0.277831 l -0.0972,1.711437 q 0.18533,-0.04118 0.3537,-0.04118 0.30868,0 0.56036,0.138426 0.33946,-0.113154 0.59663,-0.113154 0.0964,0 0.1813,0.01591 z m -0.60289,-3.675698 -5.815,2.936669 q -1.12799,1.264129 -2.15874,2.39212 v 0.01945 l 1.45861,0.233376 2.89777,-3.13115 q 0.83627,-0.680684 3.61736,-2.450465 z M 248.56537,0 q 0.0177,0 0.0357,7.480428e-4 0.23338,0.009724327 0.4862,0.3986863472 0.0583,0.17503387 0.24311,0.38896302 0.18475,0.21393009 0.53482,0.42785939 0.35007,0.2139291 0.50565,0.3403423 0.15559,0.1264132 0.5251,0.4570313 0.31117,0.2528256 0.44731,0.4084107 0.31117,-0.1944815 0.5251,-0.476479 0.21393,-0.2819984 0.23337,-0.5153762 0.0195,-0.2333778 -0.0486,-0.3695144 -0.0681,-0.13613656 -0.21394,-0.16530952 -0.0398,-0.007956 -0.0788,-0.007956 -0.10415,0 -0.20316,0.0565766 -0.13614,0.0777926 -0.11669,0.27227419 0.0389,0.1750327 0.25282,0.2139291 0.0584,-0.025004 0.0953,-0.025004 0.0492,0 0.0603,0.044453 0.0389,0.2528255 -0.19448,0.2722731 -0.0259,0.00216 -0.0508,0.00216 -0.19881,0 -0.32846,-0.1382975 -0.14586,-0.1555852 -0.12641,-0.5250996 0.13613,-0.40841067 0.42786,-0.44730695 0.053,-0.007072 0.10575,-0.007072 0.23724,0 0.46797,0.14320866 0.28199,0.17503381 0.31117,0.54454817 0.0292,0.3695144 -0.26255,0.7487531 -0.29173,0.3792387 -0.64179,0.632064 0.27227,0.3500669 0.56399,0.8751664 h 0.83627 q -0.50565,0.5445482 -0.60289,1.5364035 0.0205,-0.00102 0.0397,-0.00102 0.34618,0 0.29091,0.331642 0.54455,0.1555851 0.54455,1.0307515 -0.18152,-0.1058847 -0.3395,-0.1058847 -0.0451,0 -0.0884,0.00864 -0.23338,0 -0.37924,0.5445483 -0.14586,0.5445467 -0.63207,1.2057839 v 0.019447 q 0.11669,0.2333789 0.11669,0.7390305 0,0.5056515 -0.89461,1.4586102 -0.89461,3.072807 -0.87517,4.49252 0,0.175033 -0.25282,0.213929 l 0.64179,2.139296 q 0.0519,-0.0032 0.10616,-0.0032 0.27146,0 0.60369,0.08103 0.18986,0.04631 0.38853,0.04631 0.21853,0 0.44774,-0.05603 0.25334,-0.06193 0.4969,-0.06193 0.17714,0 0.3491,0.03275 0.27227,0.05186 0.43218,0.05186 0.0799,0 0.13181,-0.01297 0.50565,0.11669 0.564,0.758478 -0.3371,-0.194481 -0.5143,-0.194481 -0.0886,0 -0.13721,0.04862 -0.14586,0.145862 -0.57372,0.145862 h -5.65941 q -0.36952,0 -0.58345,-0.155585 -0.0713,-0.05186 -0.16855,-0.05186 -0.19448,0 -0.49268,0.207446 -0.0195,-0.622341 0.66123,-0.797375 0.38474,0.142903 0.69492,0.142903 0.2386,0 0.43308,-0.08456 l 0.0972,-1.925366 v 0 q -0.53192,0.736504 -0.92993,0.736504 -0.16952,0 -0.31475,-0.133613 0.13613,-1.186335 0.13613,-2.17819 v 0 l -0.54454,0.330618 q -0.46676,0.21393 -2.05178,2.022607 -1.51967,1.734091 -1.81474,1.734091 -0.0127,0 -0.0231,-0.0032 l -1.84758,-0.388962 q -0.29172,-0.09724 -0.11668,-0.291722 l 1.45861,-1.653091 v 0 q -1.36137,0.875165 -2.04206,1.166887 0.33062,-0.369515 1.10855,-0.933511 v 0 l -0.38897,0.136137 q -0.23338,-0.0389 -0.19448,-0.369513 3.38398,-2.450467 4.29804,-4.220247 0.91406,-1.769781 2.14902,-2.8783248 1.23496,-1.1085438 1.83785,-2.4893608 0.36951,-0.8751663 0.75848,-1.186337 l -1.80868,-4.10355719 0.42786,-0.23337782 1.0113,2.19763941 -0.0972,-0.4473068 q -0.11669,-0.4667547 -0.25283,-0.7001325 -0.13613,-0.2333777 -0.27227,-0.3306191 -0.29172,-0.42785828 -0.29172,-0.66123608 0,-0.23337779 0.17503,-0.3500667 Q 248.3527,0 248.56537,0 Z"
     style="fill:#cd853f;stroke:none"
     id="path2" />
  <path
     d="m 242.07882,2.0341674 c 0.21717,0.019304 0.33058,0.1303025 0.34023,0.3329951 -0.01,0.2171708 -0.12306,0.3354081 -0.34023,0.3547125 -0.21234,-0.019304 -0.32576,-0.1375417 -0.34023,-0.3547125 0.0193,-0.2026926 0.13271,-0.3136911 0.34023,-0.3329951 z m 2.20067,0.9989856 c -0.0226,0 -0.0439,0.00176 -0.064,0.00529 h 0 c 0.0346,0.032434 0.0728,0.062038 0.11463,0.088814 0.0842,0.053883 0.15663,0.093961 0.21733,0.1202302 -0.0383,-0.1428918 -0.12764,-0.2143377 -0.268,-0.2143377 z m -3.86565,0.202693 -0.34023,0.4198637 0.39091,-0.3185174 z m 3.61768,-0.059477 c -0.006,0.01247 -0.0119,0.025754 -0.0169,0.039852 0.10041,0.3312715 0.3023,0.4852711 0.50811,0.550082 0.0226,-0.080771 0.0369,-0.1609239 0.043,-0.2404562 -0.16507,-0.068662 -0.35278,-0.1940017 -0.53419,-0.3494783 z m 1.3483,-3.00263271 c 0.0676,0.0144779 0.10255,0.0542927 0.10496,0.11944397 0.002,0.0651513 -0.0422,0.10496608 -0.13392,0.11944397 -0.25095,0 -0.46088,0.0627381 -0.62979,0.18821465 l -0.029,-0.0217171 c 0.15443,-0.14478042 0.333,-0.21717084 0.53569,-0.21717084 -0.0241,-0.0820424 -0.0169,-0.13995448 0.0217,-0.1737367 v 0 c -0.52121,0.14960683 -0.78182,0.46088478 -0.78182,0.93383468 0,0.3281695 0.10255,0.6925341 0.30766,1.0930935 0.2051,0.4005595 0.30766,0.733555 0.30766,0.998986 0,0.228546 -0.0791,0.3509814 -0.23719,0.3673067 -0.009,0.07741 -0.0231,0.1528389 -0.0419,0.2262862 0.001,5e-6 0.003,7.3e-6 0.004,7.3e-6 0.24131,0 0.43073,-0.1146181 0.56827,-0.3438537 0.13754,-0.2292361 0.20631,-0.9084983 0.20631,-2.0377868 0,-0.3812551 -0.1665,-0.66840327 -0.49949,-0.86144425 l 0.0941,-0.10134629 h 0.15202 c 0.17374,0 0.2775,-0.0603253 0.31128,-0.18097584 -0.0338,-0.0723904 -0.12065,-0.10858543 -0.2606,-0.10858543 z m -3.32996,0.71666382 c -0.4826,0.004826 -0.85058,0.15805219 -1.10395,0.45967829 -0.25336,0.3016264 -0.37522,0.6430672 -0.36557,1.0243229 0.01,0.4053853 0.14478,0.7637174 0.40539,1.0749956 0.2606,0.3112787 0.61531,0.4693305 1.06413,0.4741562 0.42952,0 0.79509,-0.1447805 1.09672,-0.4343415 0.30162,-0.2895615 0.45244,-0.6611648 0.45244,-1.1148103 0,-0.3909077 -0.13875,-0.7359683 -0.41625,-1.0351815 -0.27749,-0.2992132 -0.65513,-0.44881969 -1.13291,-0.44881969 z m 2.0028,2.94694379 c 0.0494,0.1426452 0.12504,0.2872059 0.22683,0.4336827 0.0523,-0.077141 0.0975,-0.1537516 0.13564,-0.2298302 -0.13843,-0.043106 -0.25926,-0.1110571 -0.36247,-0.2038525 z M 245.20608,0 c 0.14478,0 0.29439,0.01447792 0.44882,0.04343417 0.12065,0.0386082 0.19304,0.13271531 0.21717,0.28232214 0,0.1303025 -0.12306,0.21475766 -0.36919,0.25336585 0.23165,0.23647522 0.34747,0.48742824 0.34747,0.75285934 0,0.6032525 -0.0241,1.1992656 -0.0724,1.7880398 -0.0869,0.6515129 -0.40779,0.9772691 -0.96279,0.9772691 -0.0388,0 -0.0767,-0.00131 -0.11364,-0.00393 -0.0605,0.1290761 -0.13842,0.251037 -0.23383,0.3658823 0.0965,0 0.22924,-0.038608 0.39815,-0.1158245 0.0193,0 0.029,0.016891 0.029,0.050673 l 0.18098,-0.014478 0.0217,0.021717 v 0.3981467 l -0.0217,0.028956 -0.18098,-0.021717 c 0,0.039091 -0.008,0.058636 -0.0234,0.058636 -0.002,0 -0.004,-2.411e-4 -0.006,-7.237e-4 -0.16891,-0.086869 -0.31852,-0.1303025 -0.44882,-0.1303025 0,0.3088651 0.0121,0.8855745 0.0362,1.7301277 0,0.033782 -0.0121,0.050673 -0.0362,0.050673 h -0.28233 c -0.0241,0 -0.0362,-0.016891 -0.0362,-0.050673 0.0241,-0.8445532 0.0362,-1.4212626 0.0362,-1.7301277 -0.12547,0 -0.27508,0.043434 -0.44881,0.1303025 -0.001,4.826e-4 -0.003,7.237e-4 -0.004,7.237e-4 -0.0117,0 -0.0176,-0.019545 -0.0176,-0.058636 l -0.18822,0.021717 -0.0217,-0.028956 V 4.4013295 l 0.0217,-0.021717 0.18822,0.014478 c 0,-0.033782 0.007,-0.050673 0.0217,-0.050673 0.17373,0.077216 0.30886,0.1158245 0.40538,0.1158245 -0.2595,-0.3066866 -0.39215,-0.6641145 -0.39795,-1.0722841 -0.0791,0.1272303 -0.17565,0.244564 -0.28976,0.3520006 -0.3716,0.3498865 -0.81801,0.5248298 -1.33922,0.5248298 -0.58395,0 -1.04,-0.2002799 -1.36817,-0.6008397 -0.0676,-0.082042 -0.10376,-0.1351282 -0.10859,-0.1592585 -0.49225,0.4102116 -0.90247,0.6708166 -1.23063,0.781815 -0.28715,0.1267928 -0.472,0.1901891 -0.55455,0.1901891 -0.0243,0 -0.0397,-0.00548 -0.0463,-0.016452 -0.0772,-0.062739 -0.0676,-0.1254763 0.0289,-0.1882149 0.64669,-0.3571254 1.15825,-0.764924 1.53468,-1.2233958 -0.0821,-0.183389 -0.12307,-0.4077986 -0.12307,-0.6732295 0.01,-0.4391677 0.17736,-0.8554122 0.50312,-1.2487326 0.32575,-0.39332073 0.7806,-0.58998112 1.36455,-0.58998112 0.008,-6.158e-5 0.0154,-9.235e-5 0.023,-9.235e-5 0.59217,0 1.05263,0.18462601 1.38138,0.55387807 0.333,0.3740165 0.49708,0.8023261 0.49226,1.284928 0,0.00241 -1e-5,0.00483 -1e-5,0.00724 h 0.007 c 0,0.1445763 0.0215,0.2723979 0.0644,0.3834658 0.0711,-0.023994 0.15339,-0.035992 0.24684,-0.035992 0.24415,0 0.41111,0.083956 0.50086,0.2518687 -0.008,-0.034318 -0.0177,-0.071221 -0.0303,-0.110708 -0.0579,-0.1809756 -0.16408,-0.4126244 -0.31852,-0.6949468 -0.15443,-0.2823222 -0.23164,-0.633415 -0.23164,-1.0532788 0,-0.44399363 0.13151,-0.74200027 0.39452,-0.89401989 C 244.8574,0.0760098 245.0613,0 245.20608,0 Z"
     style="fill:#cd853f;stroke:none"
     id="path3" />
  <path
     d="m 220.38773,4.7766317 -1.18191,0.048738 v 3.4238555 q 0.25588,0 1.31594,-0.7554409 z m 11.28288,-1.5230678 0.96258,5.1784311 0.63357,-0.2193114 h 0 q -0.007,-0.00968 -1.59615,-4.9591197 z M 231.56921,2.25 q 0.0881,0 0.19888,0.1384612 l 1.93734,6.0435338 -1.32811,0.4995656 -0.97477,-5.1906158 -0.82854,2.4490939 0.90165,0.036554 -0.0244,0.182769 q -0.19495,0.4020895 -0.79199,0.4020895 0.3168,0.5848563 -0.67015,1.8398646 h -0.30462 l -0.32898,0.889473 -0.43864,-0.194953 0.25587,-0.69452 -10.12536,0.012185 q -0.13402,-0.036554 -0.2315,-0.1827686 -0.0731,0 -0.14622,-4.1549283 h 2.1323 l 0.17058,3.0095807 q 0.26722,-0.00672 0.57662,-0.00672 1.93381,0 5.51566,0.2625975 1.31593,-0.024369 1.31593,-0.1462138 0.75544,-1.1209768 1.64491,-1.1818995 l 1.36467,-3.8137637 Q 231.46348,2.25 231.56921,2.25 Z"
     style="fill:#cd853f;stroke:none"
     id="path4" />
  <path
     d="m 233.70543,11.474475 v 1.170919 H 218.6697 v -1.170919 z"
     style="fill:#cd853f;stroke:none"
     id="path5" />
  <path
     d="M 233.70543,14.579081 V 15.75 H 218.6697 v -1.170919 z"
     style="fill:#cd853f;stroke:none"
     id="path6" />
  <path
     d="m 236.33043,0.375 v 17.25"
     style="fill:none;stroke:#cd853f;stroke-width:1"
     id="path7" />
  <path
     d="m 236.33043,0.375 h -2.625"
     style="fill:none;stroke:#cd853f;stroke-width:1"
     id="path8" />
  <path
     d="m 236.33043,17.625 h -2.625"
     style="fill:none;stroke:#cd853f;stroke-width:1"
     id="path9" />
  <path
     d="M 233.70543,0.375 H 218.6697"
     style="fill:none;stroke:#cd853f;stroke-width:1"
     id="path10" />
  <path
     d="M 233.70543,17.625 H 218.6697"
     style="fill:none;stroke:#cd853f;stroke-width:1"
     id="path11" />
  <path
     d="m 218.6697,0.375 h -17.625"
     style="fill:none;stroke:#cd853f;stroke-width:1"
     id="path12" />
  <path
     d="m 218.6697,17.625 h -17.625"
     style="fill:none;stroke:#cd853f;stroke-width:1"
     id="path13" />
  <path
     d="m 216.9072,0.375 v 17.25"
     style="fill:none;stroke:#cd853f;stroke-width:1"
     id="path14" />
  <path
     d="m 213.3822,0.375 v 17.25"
     style="fill:none;stroke:#cd853f;stroke-width:1"
     id="path15" />
  <path
     d="m 211.6197,0.375 v 17.25"
     style="fill:none;stroke:#cd853f;stroke-width:1"
     id="path16" />
  <path
     d="m 209.8572,2.1 h -8.8125"
     style="fill:none;stroke:#cd853f;stroke-width:1"
     id="path17" />
  <path
     d="m 209.8572,5.55 h -8.8125"
     style="fill:none;stroke:#cd853f;stroke-width:1"
     id="path18" />
  <path
     d="M 209.8572,2.1 V 5.55"
     style="fill:none;stroke:#cd853f;stroke-width:1"
     id="path19" />
  <path
     d="m 208.0947,3.825 h -7.05"
     style="fill:none;stroke:#cd853f;stroke-width:1"
     id="path20" />
  <path
     d="m 209.8572,7.275 h -8.8125"
     style="fill:none;stroke:#cd853f;stroke-width:1"
     id="path21" />
  <path
     d="m 209.8572,10.725 h -8.8125"
     style="fill:none;stroke:#cd853f;stroke-width:1"
     id="path22" />
  <path
     d="m 209.8572,7.275 v 3.45"
     style="fill:none;stroke:#cd853f;stroke-width:1"
     id="path23" />
  <path
     d="m 208.0947,9 h -7.05"
     style="fill:none;stroke:#cd853f;stroke-width:1"
     id="path24" />
  <path
     d="m 209.8572,12.45 h -8.8125"
     style="fill:none;stroke:#cd853f;stroke-width:1"
     id="path25" />
  <path
     d="m 209.8572,15.9 h -8.8125"
     style="fill:none;stroke:#cd853f;stroke-width:1"
     id="path26" />
  <path
     d="M 209.8572,12.45 V 15.9"
     style="fill:none;stroke:#cd853f;stroke-width:1"
     id="path27" />
  <path
     d="m 208.0947,14.175 h -7.05"
     style="fill:none;stroke:#cd853f;stroke-width:1"
     id="path28" />
  <path
     d="m 184.59489,5.899675 c -0.0355,0.012283 -0.0727,0.019276 -0.11124,0.019276 -0.0126,0 -0.0254,-7.522e-4 -0.0383,-0.00232 z m 8.61885,-5.3377646 c -0.33332,0 -0.65162,0.11150427 -0.9508,0.25605389 0.0668,0.57319901 0.48789,0.48591481 0.88473,0.67472441 0.0488,0.02859 0.0386,0.1062451 -0.0182,0.1171824 -0.2181,0.012931 -0.43402,0.049361 -0.65205,0.049361 -0.0427,0 -0.0855,-0.0014 -0.12844,-0.00465 -0.18321,-0.042419 -0.35007,-0.1408894 -0.48662,-0.2689029 -0.0542,0.2112865 -0.0883,0.4375199 -0.21247,0.6207587 -1.13605,0.568465 -1.8362,1.8218 -2.58171,2.8114544 -0.7257,1.0384315 -1.45075,2.0773612 -2.19964,3.0991682 0.81717,-0.393999 1.63258,-0.7898302 2.43801,-1.2072879 0.92707,-0.4182366 1.8618,-0.8656555 2.64401,-1.5128875 0.4908,-0.4061142 1.52595,-1.1022046 1.38892,-1.8783118 -0.2031,-0.5507113 -0.63768,-1.0327523 -0.99266,-1.5039446 0.0554,-0.015673 0.11695,-0.03762 0.17582,-0.03762 0.0368,0 0.0726,0.00859 0.10511,0.032686 0.47297,0.2535003 0.88052,0.6593824 1.11107,1.1483883 0.14637,-0.3827052 -0.11714,-0.8458496 -0.062,-1.1977283 0.10148,-0.3225144 0.16426,-0.6622893 0.32287,-0.96367168 -0.0593,-0.0258107 -0.12004,-0.0700383 -0.17331,-0.0922041 v 0 c 0.0348,0.15297445 -0.0547,0.33483559 -0.2063,0.38176819 -0.0161,0.00195 -0.0327,0.00298 -0.0494,0.00298 -0.10228,0 -0.21142,-0.038227 -0.25247,-0.13804893 -0.0658,-0.1166557 -0.0762,-0.28029453 0.0188,-0.38423518 -0.0355,-0.003009 -0.0706,-0.004521 -0.10577,-0.004934 -0.006,-6.863e-5 -0.0117,-1.0269e-4 -0.0175,-1.0269e-4 z m -1.14292,5.556094 c -0.67506,0.5294081 -1.39675,0.9933908 -2.12933,1.4379524 0.007,0.5040479 -0.0185,1.0077169 -0.0348,1.5113456 0.2389,-0.1724304 0.5094,-0.3096217 0.80085,-0.3629573 0.56981,-0.8507402 1.06755,-1.5998149 1.36332,-2.5863407 z m 0.32534,0.6161332 -0.004,0.00925 -0.002,0.00586 c -0.31082,0.7641068 -0.74874,1.4681256 -1.20143,2.1555409 0.0985,0.052427 0.18948,0.1196706 0.26736,0.1989018 0.19776,-0.1927265 0.39515,-0.4099586 0.65961,-0.5078935 -0.0861,-0.5303007 0.15958,-1.3208777 0.28032,-1.8616595 z m -0.49124,2.6421565 -3.1e-4,3.084e-4 c -0.11569,0.1292777 -0.22287,0.2877403 -0.38948,0.3546311 -0.11977,-0.052517 -0.21539,-0.076212 -0.29147,-0.076212 -0.41109,0 -0.25196,0.6916803 -0.24973,1.2665393 0.10993,-0.01102 0.22804,-0.02744 0.34401,-0.02744 0.1321,0 0.26141,0.02131 0.37266,0.09621 0.14498,-0.0568 0.29274,-0.07204 0.43653,-0.07204 0.0824,0 0.16341,0.005 0.24189,0.01005 z m -2.0129,-2.4002888 c -0.004,0 -0.0141,0.00417 -0.0323,0.013158 -1.18105,0.5851727 -2.35784,1.1794582 -3.54816,1.7450938 -0.68442,0.6393666 -1.31222,1.4201385 -1.96065,2.1157605 0.39513,0.06774 0.79027,0.135479 1.1854,0.203219 1.0625,-0.978594 1.83559,-2.2809904 3.00511,-3.1386401 0.21026,-0.1751859 1.37644,-0.9241985 1.35161,-0.938385 -2.4e-4,-1.373e-4 -5.9e-4,-2.066e-4 -0.001,-2.066e-4 z m -0.44362,0.9355078 c -0.28324,0.1846293 -0.59023,0.3392895 -0.83539,0.5745025 -0.85472,0.8690849 -1.6598,1.7878824 -2.49752,2.6751524 0.88332,4.51e-4 1.76654,5.93e-4 2.64986,6.17e-4 0.22183,-0.161775 0.49183,-0.229824 0.75552,-0.289256 0.0172,0.0588 0.16322,0.07449 0.33058,0.07449 0.19144,0 0.41083,-0.02052 0.49743,-0.02052 4.1e-4,0 8.1e-4,0 0.001,10e-7 0.0288,-0.527425 0.0576,-1.0548478 0.0863,-1.5822719 v 0 c -0.14016,0.075091 -0.30669,0.1215021 -0.40489,0.2565679 -0.12918,0.1403396 -0.25557,0.2944258 -0.42556,0.3867022 -0.59094,-0.099479 -0.17105,-1.6085909 -0.15758,-2.0759801 z m -3.62001,3.7424379 c 0.54924,0.915315 1.39744,1.603996 2.30973,2.139506 1.02733,0.600898 2.2154,0.935182 3.40869,0.935182 0.0924,0 0.18489,-0.002 0.27731,-0.006 1.075,-0.05642 2.13366,-0.36904 3.06679,-0.901688 0.63651,-0.361853 1.23616,-0.798821 1.74109,-1.328479 0.24205,-0.255972 0.46141,-0.536106 0.64388,-0.838472 z m 8.65793,2.957933 c -0.95439,0.383776 -2.06585,0.633192 -3.16356,0.633192 -0.9485,0 -1.88673,-0.186218 -2.7045,-0.632884 -0.30684,0.306833 -0.61367,0.613666 -0.9205,0.920499 1.17345,0.798074 2.52087,1.202307 3.86855,1.202307 1.3364,0 2.67304,-0.397494 3.84051,-1.202615 -0.30683,-0.306833 -0.61366,-0.613666 -0.9205,-0.920499 z m 3.44051,-2.959494 c -4e-4,0 -8e-4,6e-6 -0.001,2e-5 -0.011,3.59e-4 -0.0221,0.0056 -0.033,0.01665 -0.1697,0.292683 -0.36642,0.568091 -0.5708,0.837238 0.12637,0.08173 0.16323,0.245076 0.18626,0.384235 0.0107,0.185604 -0.004,0.3717 0.003,0.557542 0,1.353149 0,2.706298 0,4.059448 h 0.66579 c -0.002,-1.697768 0.004,-3.395767 -0.003,-5.093429 0.015,-0.08244 -0.11722,-0.761706 -0.24673,-0.761706 z m -12.74017,0.0077 c -0.12124,0.04994 -0.14897,0.1995 -0.18564,0.311459 -0.11369,0.429289 -0.062,0.878951 -0.0731,1.318302 0,1.405882 0,2.811763 0,4.217645 h 0.65376 c 0.001,-1.545756 -0.003,-3.091716 0.002,-4.637343 0.0343,-0.131449 0.0791,-0.278502 0.19982,-0.355556 -0.21346,-0.273924 -0.41019,-0.565353 -0.59701,-0.854507 z M 193.0097,0 c 0.007,0 0.0147,5.1171532e-5 0.022,1.5394279e-4 0.38849,0.005424507 0.74792,0.11795438721 1.09072,0.28617194721 0.29653,0.12925465 0.8288,0.4556824 0.76909,0.84679761 -0.0469,0.035153 -0.0972,0.044124 -0.15053,0.044124 -0.0556,0 -0.1143,-0.00975 -0.17558,-0.00975 -0.0507,0 -0.10305,0.00666 -0.15681,0.031001 -0.13226,0.211386 -0.20682,0.4677766 -0.24916,0.7135796 0.28991,1.0867232 -0.0582,1.9962703 -0.72222,2.8484593 -0.31329,1.0998705 -0.63219,2.2050682 -0.77494,3.3418593 -0.0266,0.2275018 -0.0312,0.4588571 -0.005,0.6858259 -0.32998,0.5637624 0.12128,1.3608639 0.31917,2.0405169 0.10721,-0.0086 0.21451,-0.01158 0.32186,-0.01158 0.23338,0 0.46698,0.01396 0.70032,0.01396 0.11833,0 0.23658,-0.0036 0.35471,-0.01441 0.27184,0.04525 0.56022,0.142099 0.75398,0.34538 0.87661,2.99e-4 1.75322,5.95e-4 2.62982,0.0015 0.30896,0.01336 0.61507,0.186826 0.75058,0.470272 0.20562,0.387906 0.18091,0.84164 0.18102,1.268038 0,1.695239 0,3.39048 0,5.085719 -0.36409,0 -0.72818,-10e-7 -1.09226,-10e-7 -0.18205,0 -0.36409,0 -0.54614,10e-7 -0.003,-1.713811 0.005,-3.427899 -0.004,-5.141535 -0.002,-0.009 -0.004,-0.01247 -0.007,-0.01247 -0.009,0 -0.0231,0.03749 -0.0369,0.03961 -0.60627,0.614026 -1.32613,1.106395 -2.08616,1.511654 0.40747,0.407568 0.81493,0.815142 1.2224,1.222707 -1.43374,1.074014 -2.69792,1.647836 -4.42726,1.647836 -0.11697,0 -0.23606,-0.0026 -0.35749,-0.0079 -1.53644,-0.06672 -2.99374,-0.740742 -4.33821,-1.658749 0.40104,-0.404363 0.80758,-0.803392 1.21222,-1.204204 -0.7743,-0.409792 -1.50834,-0.917877 -2.12532,-1.536324 v 0 c -0.0227,0.05992 0.001,0.128098 -0.009,0.190884 0,1.653608 1e-5,3.307216 0,4.960827 -0.36409,0 -0.72817,-10e-7 -1.09226,-10e-7 -0.18204,0 -0.36409,0 -0.54613,10e-7 0.003,-1.889914 -0.006,-3.779934 0.005,-5.669781 0.0181,-0.320232 0.0918,-0.663568 0.31701,-0.902305 -0.27499,-0.04126 -0.55088,-0.07919 -0.8249,-0.121809 -0.12912,-0.03049 -0.27926,-0.0972 -0.3164,-0.23714 -0.0219,-0.100312 5.6e-4,-0.2149 0.087,-0.279388 0.33696,-0.367698 0.6811,-0.728965 1.02164,-1.0934971 v 0 c -0.48446,0.2952636 -0.97114,0.5911321 -1.49068,0.8196601 -0.0226,0.0031 -0.0501,0.0089 -0.0761,0.0089 -0.0316,0 -0.0609,-0.0086 -0.0759,-0.0413 0.007,-0.06961 0.0848,-0.09338 0.1215,-0.145244 0.20363,-0.191672 0.42741,-0.367637 0.64882,-0.5341059 -0.22094,-0.034348 -0.34438,-0.3164125 -0.16097,-0.4699634 1.05381,-0.7662991 2.15019,-1.4755102 3.19476,-2.2545292 0.90695,-1.2832559 1.81862,-2.6186095 2.77939,-3.861471 0.45445,-0.587884 0.77999,-1.1179806 1.43641,-1.5172047 0.0557,-0.033471 0.14537,-0.03301 0.16498,-0.1048475 0.0916,-0.2110809 0.10541,-0.4520249 0.23498,-0.64666228 C 191.83973,0.42256746 192.3444,0 193.0097,0 Z"
     style="fill:#cd853f;stroke:none"
     id="path29" />
  <path
     d="m 180.48131,9.0150245 c 0,-0.6510848 -0.2404,-1.0918199 -0.73122,-1.3121875 l 0,2.604342 c 0.49082,-0.230384 0.73122,-0.6611026 0.73122,-1.2921545 z m -1.45242,-8.30384007 -1.17196,2e-8 0,16.59766355 1.17196,0 z m 2.05342,8.30384007 c 0,1.1218705 -0.44073,1.8230385 -1.33222,2.0834725 l 0,6.901503 -2.60434,0 0,-17.999999968943551 L 179.75009,0 l 0,6.921536 c 0.89149,0.2704503 1.33222,0.9616018 1.33222,2.0934885 z"
     style="fill:#cd853f;stroke:none"
     id="path30" />
  <path
     d="m 172.25336,2.7160665 q 0.20528,0.2052835 0,0.3789865 l 0.58427,-0.2210755 z m -3.15822,-0.015791 -0.56848,0.1737021 0.56848,0.2210755 q -0.20528,-0.173703 0,-0.3947776 z m 2.76344,-0.015791 -0.47373,0.3474041 0.50531,0.094746 q -0.18949,-0.173701 -0.0316,-0.4421502 z m -2.36866,-0.015791 v 0 q 0.15791,0.2842403 -0.0316,0.4579413 l 0.50531,-0.094746 z m -0.066,-0.1292371 q 0.1651,0 0.26338,0.050282 0.33951,0.173702 0.46584,0.5053149 -0.28378,0.1569818 -0.6345,0.1569818 -0.56656,0 -1.30781,-0.4096398 0.80784,-0.302939 1.21309,-0.302939 z m 2.49348,0.00129 q 0.40843,0 1.23604,0.317441 -0.74012,0.4037027 -1.30472,0.4037027 -0.36295,0 -0.65337,-0.1668359 0.12633,-0.3316129 0.46583,-0.5053149 0.0958,-0.048993 0.25622,-0.048993 z m 2.51954,-0.7533732 q 0.0927,0 0.20876,0.107558 0.32372,0.3000305 -0.529,1.7212282 l -0.15791,-0.1105374 0.25265,-0.6158522 -0.0158,-0.5053149 0.20529,-0.031581 v 0 q -0.0632,0.078955 -0.0711,0.347403 -0.008,0.2684482 -0.27635,0.7579729 l 0.0474,0.047372 q 0.11053,-0.2052844 0.3474,-0.7342851 0.23687,-0.5290016 0.0868,-0.7342861 -0.0574,-0.078491 -0.11587,-0.078491 -0.0945,0 -0.19205,0.2048195 l -0.0474,-0.031581 q 0.0912,-0.3444248 0.25708,-0.3444248 z m -7.52337,0 q 0.16954,0 0.27084,0.3444248 l -0.0474,0.031581 q -0.0975,-0.2048195 -0.19507,-0.2048195 -0.0604,0 -0.12075,0.078491 -0.15791,0.2052845 0.0789,0.7342861 0.23687,0.5290007 0.3632,0.7342851 l 0.0474,-0.047372 q -0.26845,-0.4895247 -0.27634,-0.7579729 -0.008,-0.2684481 -0.0711,-0.347403 v 0 l 0.18949,0.031581 -0.0158,0.5053149 0.25266,0.6158522 -0.14212,0.1105374 q -0.86851,-1.4211977 -0.5448,-1.7212282 0.11605,-0.107558 0.21079,-0.107558 z m 7.42289,-0.2183283 q -0.13543,0 -0.18028,0.1916622 -0.0869,0.3710909 -0.0632,0.6158522 0.0171,0.1764563 -0.17513,0.1764563 -0.0744,0 -0.18017,-0.026441 v 0 q 0.41057,0.4579413 0.0316,0.8369277 -0.0947,0.521106 0.17371,0.5368965 0.005,2.675e-4 0.009,2.675e-4 0.26679,0 0.70144,-0.9003592 0.44216,-0.9158827 0.0158,-1.2632866 -0.20616,-0.1679756 -0.33293,-0.1679756 z m -7.32443,0 q -0.12678,0 -0.33293,0.1679756 -0.42636,0.3474039 0.0237,1.2632866 0.44242,0.9003592 0.70172,0.9003592 0.004,0 0.009,-2.675e-4 0.26055,-0.01579 0.16581,-0.5368965 -0.3632,-0.3789864 0.0316,-0.8369277 v 0 q -0.10136,0.026441 -0.1732,0.026441 -0.18559,0 -0.1742,-0.1764563 0.0158,-0.2447613 -0.0711,-0.6158522 -0.0449,-0.1916622 -0.18028,-0.1916622 z m 2.4173,0.330471 q 0.0978,0 0.18691,0.019102 0.55269,0.1184328 0.74218,0.5132105 0.1737,0.5368963 0.16581,1.1922264 -0.008,0.65533 -0.3632,0.773764 -0.3553,0.1184318 -0.24476,0.2447612 0.061,0.069699 0.14601,0.069699 0.0691,0 0.15402,-0.046012 0.0725,-0.039246 0.13683,-0.039246 0.10398,0 0.18689,0.1024094 0.0671,0.082903 0.1362,0.082903 0.0691,0 0.14014,-0.082903 0.0878,-0.1024094 0.19062,-0.1024094 0.0637,0 0.1331,0.039246 0.0814,0.046012 0.15012,0.046012 0.0846,0 0.14991,-0.069699 0.11843,-0.1263294 -0.23687,-0.2447612 -0.3553,-0.118434 -0.36319,-0.7658684 -0.008,-0.6474346 0.15001,-1.200122 0.15791,-0.3947777 0.68692,-0.5132105 0.0835,-0.0187 0.17827,-0.0187 0.50531,0 1.32977,0.5319105 l 0.0316,0.2368658 q -0.77693,-0.4832072 -1.34919,-0.4832072 -0.38152,0 -0.67207,0.214759 -0.33162,1.2317044 0.0474,1.800183 0.64743,0.1579116 0.44215,0.521106 -0.12106,0.2141921 -0.33549,0.2141921 -0.14917,0 -0.34353,-0.1036549 -0.1658,0.2052844 -0.32766,0.2052844 -0.16186,0 -0.31977,-0.2052844 -0.20083,0.1036549 -0.35382,0.1036549 -0.21992,0 -0.34099,-0.2141921 -0.20528,-0.3631944 0.45794,-0.521106 0.30003,-0.5684786 0.0316,-1.800183 -0.30205,-0.2249314 -0.69303,-0.2249314 -0.56971,0 -1.32823,0.4775885 l 0.0474,-0.236866 q 0.74167,-0.5165213 1.25008,-0.5165213 z m 0.83621,3.4188416 q -0.17678,0 -0.44402,0.097986 0.45144,0.1504795 0.91616,0.1504795 0.41308,0 0.83665,-0.1188973 -0.30554,-0.1241256 -0.4985,-0.1241256 -0.12616,0 -0.2042,0.053065 -0.0987,0.067112 -0.19541,0.067112 -0.0967,0 -0.19147,-0.067112 -0.0826,-0.058508 -0.21921,-0.058508 z m 1.30879,0.2558966 q -0.45004,0.1658062 -0.92772,0.1658062 -0.47768,0 -0.983,-0.1658062 v 0 q 0.52111,0.347403 1.01063,0.3710898 0.0277,0.00134 0.0552,0.00134 0.45759,0 0.84492,-0.3724307 z m -0.53689,-0.4579416 q 0.37898,0.078955 0.85271,0.3474044 -0.42636,0.5211051 -0.83692,0.615851 -0.16989,0.039206 -0.3506,0.039206 -0.256,0 -0.5337,-0.078683 -0.47374,-0.1342241 -0.69481,-0.5921656 0.50531,-0.252658 0.83693,-0.3158216 l 0.36319,0.1421195 z m -1.56332,-3.8846069 q -0.69481,0.6632256 -1.67386,1.2632866 -0.1737,0.4579424 -0.079,0.600062 0.0947,0.1421197 0.18949,0.8369268 0.48953,1.1053766 0.90799,1.8159752 0.41846,0.7105983 0.86851,1.0027339 0.1959,0.1271645 0.40826,0.1271645 0.27549,0 0.57868,-0.2140157 0.36341,0.2491961 0.63466,0.2491961 0.14127,0 0.25754,-0.067598 0.33951,-0.197389 0.90009,-0.8685104 0.56058,-0.6711201 0.98694,-2.0449451 0.0947,-0.6948071 0.1816,-0.8290322 0.0868,-0.134224 -0.0711,-0.6079566 -1.38962,-0.6158522 -1.67386,-1.2317043 -0.58953,0.2450012 -1.17535,0.2450012 -0.62244,0 -1.24068,-0.2765835 z m 1.20012,5.7479549 q -0.41329,0.2880512 -0.73718,0.2880512 -0.0845,0 -0.16291,-0.019603 l -0.31582,2.0686323 h 2.46341 l -0.34741,-2.0686323 q -0.0784,0.019603 -0.1629,0.019603 -0.3239,0 -0.73719,-0.2880512 z M 170.67425,0 q 2.51078,0 3.1898,2.2423341 -0.0632,-0.6790169 0.33161,-0.8764056 0.0958,-0.04791 0.19397,-0.04791 0.30621,0 0.63506,0.4663738 0.43426,0.6158522 -0.67112,2.1949607 -0.20168,0.4343928 -0.41098,0.4343928 -0.004,0 -0.007,-1.385e-4 -0.21318,-0.0079 -0.29213,-0.2131798 -0.44215,1.8633496 -1.76861,2.76344 l 0.44215,2.6529033 h -3.22138 l 0.37899,-2.6529033 q -1.01063,-0.9316726 -1.7686,-2.76344 -0.079,0.2052844 -0.29214,0.2131798 -0.004,1.385e-4 -0.007,1.385e-4 -0.20931,0 -0.41099,-0.4343928 -1.10538,-1.5791085 -0.66323,-2.1949607 0.33484,-0.4663738 0.63797,-0.4663738 0.0972,0 0.19106,0.04791 0.38689,0.1973887 0.30793,0.8764056 Q 168.16347,0 170.67425,0 Z"
     style="fill:#cd853f;stroke:none"
     id="path31" />
  <path
     d="M 171.22708,11.41579 V 18 h -1.10192 v -6.58421 z"
     style="fill:#cd853f;stroke:none"
     id="path32" />
  <path
     d="m 157.32616,0.36392 q -0.16521,0 -0.27316,0.20609803 -0.16824,0.26918855 0.23554,0.45425577 0.42061,0.201892 0.28601,0.6897971 l -0.40378,1.6656063 q 0.42061,0.050473 0.70662,0.4037829 V 1.7140709 q 0,-1.05993161 -0.28601,-1.24499884 Q 157.44416,0.36392 157.32616,0.36392 Z m 0.93819,3.7788393 v 0.6262918 0 0 0 0 0 l 1.37959,-0.1443762 q -0.0336,-0.1682425 -0.51314,-0.3448973 -0.3533,-0.1301642 -0.86645,-0.1370183 z m -0.58853,0.036783 q -0.62011,0.1223311 -0.92566,0.7479706 l 1.09358,-0.1144446 v 0 -0.238865 q 0,-0.1177707 -0.13459,-0.3533111 -0.016,-0.020941 -0.0333,-0.04135 z m -1.8143,0.7036666 q 0.0985,0 0.26614,0.296669 -0.42061,-0.1514189 -0.31966,-0.2691896 0.0236,-0.027479 0.0535,-0.027479 z m 3.91702,0.010656 -1.51419,0.1546747 v 0 0.1429632 0 q 0.0243,0.00163 0.0505,0.0052 0.28601,0 0.33649,0.3364865 0.0336,-0.2691886 0.31125,-0.3953706 0.12618,-0.057356 0.33057,-0.057356 0.24528,0 0.60318,0.082592 -0.0168,-0.1682425 -0.11777,-0.2691886 z m -0.18507,0.841215 q -0.16824,0 -0.28601,0.067298 0.0673,0.1177692 0.21871,0.2018907 -0.0673,-0.084122 -0.0589,-0.1682425 0.008,-0.084122 0.12618,-0.1009461 z m 0.13459,0.016825 v 0 q 0.0505,0.1009461 0.0421,0.1598302 -0.008,0.058886 -0.0925,0.1093584 0.10095,0 0.20189,-0.050473 -0.0168,-0.1177697 -0.15142,-0.2187158 z m -0.0841,-0.084121 q 0.25237,0 0.31966,0.3533096 -0.13459,0.084122 -0.35331,0.084122 -0.23554,0 -0.37013,-0.252364 h -0.42061 V 5.7182549 l 0.42061,0.033649 q 0.16824,-0.084121 0.40378,-0.084121 z M 155.8564,4.7787709 q -0.0729,0 -0.13252,0.064621 -0.18507,0.2018907 0.31966,0.4374321 -0.52155,0.7907422 -0.53838,1.8843217 l 0.1346,0.016825 q 0,-1.0935795 0.45425,-1.8338499 l 0.0336,0.03365 q -0.33648,0.7066207 -0.33648,2.3385775 h 0.13459 q 0.11777,-1.6319568 0.20189,-2.0189161 l 0.15142,-0.5552018 Q 156.03016,4.7787709 155.8564,4.7787709 Z m 3.55505,0.5150777 q -0.16478,0 -0.30589,0.045859 -0.33648,0.1093584 -0.33648,0.4626695 h -0.21872 q -0.0505,-0.3028383 -0.20189,-0.3028383 -0.15142,0 -0.0673,0.3028383 l 0.47108,0.7402689 v 1.5814845 l 0.0505,0.016825 q 0.0841,-0.1177701 0.16824,-0.294425 0.0841,-0.1766548 0.13459,-0.4794926 l 0.50473,-0.016825 q 0.26919,0 0.26919,-0.1345943 0,-0.252365 -0.25236,-0.2860132 0,-0.1345943 0.0841,-0.1345943 l 0.33648,-0.016825 q -0.10094,-0.2187158 0.2019,-0.3028382 0,-0.1345944 -0.28602,-0.6056747 V 5.5836606 l -0.0505,0.084123 q -0.20189,-0.1177707 -0.33649,-0.1177707 -0.13459,0 -0.38696,0.1009461 h -0.30283 V 5.5331878 h 0.30283 q 0.21872,-0.1514179 0.38696,-0.1514179 0.18507,0 0.38696,0.1514179 0,-0.1345943 -0.0505,-0.1514179 -0.27353,-0.087921 -0.50168,-0.087921 z m -1.56771,-0.2023439 -1.19453,0.1220212 q -0.0336,0.084122 -0.18506,0.5720269 -0.21872,0.6393228 -0.16825,4.6098602 l 2.11987,0.01682 V 6.5931191 Q 158.298,6.4248756 158.11293,6.1220388 157.92786,5.819201 157.93627,5.4827145 q 0.006,-0.2487075 0.21006,-0.2860132 h -0.30259 z m 0.90851,3.7560718 v 1.9347955 h -1.8002 q 0.0168,1.026282 0.19348,2.489997 0.17666,1.463715 0.44585,2.481585 0.26918,1.017871 -0.37014,1.657194 h 4.98 q -0.18507,-0.185067 -0.24396,-0.622498 -0.0589,-0.437434 0.39537,-1.463715 l 1.26183,-3.81912 q 0.0841,-0.353308 -0.21031,-0.546788 -0.0981,-0.06449 -0.19534,-0.06449 -0.19442,0 -0.38509,0.257973 l -1.69926,2.540469 -0.65615,0.807567 q -0.16824,0.11777 -0.29723,0.11777 -0.25797,0 -0.35892,-0.47108 -0.60567,-1.379594 -0.45425,-3.364861 0.58885,-0.639324 -0.60568,-1.9347955 z M 157.30605,0 q 0.22606,0 0.50404,0.18305882 0.45426,0.3028369 0.45426,1.78337598 v 1.8287971 0 q 0.47974,0.024108 0.80757,0.097586 0.4879,0.1093584 0.79074,0.4710803 0.30283,0.3617224 0.30283,1.0010467 0.0841,0.2691881 0.0336,0.5047285 0.26919,0.50473 0.26919,0.6897971 0,0.1009461 -0.23554,0.1009461 l 0.0336,0.1514189 q -0.0168,0.084121 -0.10095,0.1009447 0.0673,0.067298 0.0336,0.1514193 l -0.11777,0.050473 q 0.11777,0.4542558 -0.38696,0.4542558 h -0.33648 q -0.0337,0.3196623 -0.38696,0.8748646 0.0168,0.016825 0.31966,0.4121957 0.30284,0.3953711 0.60568,0.9337484 0.30283,0.5383778 -0.11777,1.0599318 -0.11777,1.716079 0.52155,3.146145 l 2.20398,-3.230267 h 0.0168 q 0.28618,-0.377766 0.70478,-0.377766 0.19662,0 0.42245,0.08334 0.70662,0.260778 0.52155,0.883277 -1.74973,5.165062 -1.69926,5.518373 0.0505,0.35331 0.49632,0.622498 0.44585,0.26919 0.22713,0.50473 h -6.67925 q -0.33649,-0.151419 0,-0.471081 0.87486,-1.059932 0.56361,-2.03574 -0.31125,-0.97581 -0.54679,-4.710806 h -0.62249 V 9.671967 q -0.0168,-1.0262826 0,-1.7497275 -0.11777,-0.016825 -0.28602,-0.084122 l 0.0168,-0.5047299 -0.30284,-0.016824 q 0,-1.2449984 0.53838,-1.9684442 -0.58885,-0.2187153 -0.25237,-0.6056746 0.12338,-0.142859 0.25428,-0.142859 0.20824,0 0.43552,0.3615748 0.45242,-0.8334102 0.9891,-1.0770505 v 0 q -0.22448,-0.1253127 -0.53485,-0.2184205 l 0.47109,-2.0020925 Q 157.28854,1.4280577 156.93523,1.2093411 156.46415,0.88967957 156.75016,0.40177439 156.97114,0 157.30605,0 Z"
     style="fill:#cd853f;stroke:none"
     id="path33" />
  <path
     d="m 143.71768,8.7040172 c -0.33687,0 -0.75187,0.059974 -1.24499,0.1799222 -1.04103,0.2532245 -1.94138,0.6119583 -2.70106,1.0762015 -0.75967,0.4642441 -1.61078,1.0480661 -2.55334,1.7514651 0.90725,0.459364 1.95042,0.689045 3.12953,0.689045 0.2653,0 0.53748,-0.01163 0.81655,-0.03488 1.51934,-0.126613 2.82415,-0.573272 3.91442,-1.339977 1.09027,-0.766706 1.36107,-1.2379837 0.81242,-1.4138342 -0.54865,-0.1758495 -0.99531,-0.4044547 -1.33997,-0.6858145 -0.18141,-0.1480838 -0.45926,-0.2221261 -0.83356,-0.2221261 z m -7.25906,3.1764058 -0.86518,0.189917 c 0,0.225088 0.20399,0.407972 0.61196,0.548652 0.23212,0.01583 0.47413,0.02374 0.72603,0.02374 0.41985,0 0.86717,-0.02198 1.34196,-0.06594 -0.91442,-0.112544 -1.51934,-0.344665 -1.81477,-0.696365 z m -1.32942,0.31653 -0.52755,0.105509 c -0.0563,0.168817 0.14068,0.337633 0.59085,0.506448 l 0.61196,-0.0422 c -0.43611,-0.196951 -0.6612,-0.386869 -0.67526,-0.569753 z m -0.80188,0.211019 -0.35873,0.08441 c 0.0844,0.239156 0.33763,0.358734 0.75967,0.358734 -0.23916,-0.154748 -0.3728,-0.302461 -0.40094,-0.443142 z m -0.59086,0.21102 c -0.33763,0.09848 -0.56272,0.260258 -0.67526,0.485347 l 0.94959,-0.211021 c -0.18288,-0.08441 -0.27433,-0.175849 -0.27433,-0.274326 z m 2.19461,1.245018 c -1.0551,0.126612 -1.84994,0.42204 -2.38452,0.886284 l 2.61664,-0.611958 c -0.0281,-0.154749 -0.10551,-0.24619 -0.23212,-0.274326 z M 148.14913,0.40093763 c -0.6612,0 -1.16061,0.18288399 -1.49825,0.54865196 -0.33763,0.36576801 -0.44314,1.24853481 -0.31653,2.64830061 0.12662,1.3997658 0.16882,2.3493551 0.12662,2.8487688 -0.0422,0.4994143 -0.17234,0.8686989 -0.39039,1.1078543 -0.21805,0.2391564 -0.48183,0.4747949 -0.79132,0.7069169 -0.3095,0.2321221 -0.15475,0.4396248 0.46424,0.6225092 0.61899,0.1828833 0.96366,0.4536924 1.034,0.8124272 0.0703,0.3587324 -0.0176,0.6893314 -0.26378,0.9917934 -0.24619,0.302463 -0.83353,0.710434 -1.76202,1.223915 -0.92848,0.513482 -1.74794,0.840563 -2.45838,0.981243 -0.71043,0.14068 -2.88745,0.211021 -6.53106,0.211021 -1.12545,0.211019 -1.87105,0.492379 -2.23681,0.844079 l 2.40562,-0.548652 c 0.22509,0.07034 0.40094,0.203986 0.52755,0.400938 0,0.365769 0.79484,0.576788 2.38453,0.63306 0.23915,0 0.40094,-0.330598 0.48534,-0.991794 l 0.25323,0.21102 c -0.12662,0.534584 -0.16179,1.005862 -0.10551,1.413834 0.19695,-0.478312 0.54161,-0.794842 1.03399,-0.94959 0.78781,-0.140681 1.49121,-0.270809 2.1102,-0.390387 0.619,-0.119577 1.24502,-0.376318 1.87808,-0.770223 0.56272,-0.436107 1.46659,-0.907385 2.71161,-1.413833 1.24502,-0.506448 1.86752,-1.259085 1.86752,-2.2579139 0,-0.9988275 -0.33411,-1.8253224 -1.00234,-2.4794837 -0.66823,-0.6541618 -1.00235,-1.4384524 -1.00235,-2.352872 0,-0.450176 0.0563,-0.8757332 0.16882,-1.2766712 0.10183,-0.3627535 0.40518,-0.5441303 0.91007,-0.5441303 0.0531,0 0.10852,0.00201 0.16613,0.00603 l 1.77257,0.232122 c -0.0563,-0.1828836 -0.14068,-0.3516995 -0.25322,-0.5064476 -0.14068,-0.4361079 -0.29543,-0.689332 -0.46425,-0.7596718 -0.0246,0.086167 -0.11925,0.1292499 -0.28389,0.1292499 -0.0235,0 -0.0485,-8.792e-4 -0.0748,-0.00264 -0.28136,-0.014068 -0.44314,-0.1547481 -0.48535,-0.4220398 0.0281,-0.2672917 0.18992,-0.40797176 0.48535,-0.42203984 0.25322,0.0140681 0.3939,0.15474814 0.42204,0.42203984 0.22509,0.2110198 0.40094,0.4572098 0.52755,0.7385696 0.0409,0.020462 0.0809,0.030693 0.11998,0.030693 0.0684,0 0.13388,-0.031333 0.19655,-0.094 -0.16882,-0.3376316 -0.41501,-0.6858144 -0.73857,-1.04454787 -0.32357,-0.35873427 -0.78781,-0.5381014 -1.39273,-0.5381014 z m -4.79016,13.75850037 -0.67526,0.168815 0.75967,1.097304 z m -1.30832,0.232122 c -0.56272,0 -1.03751,0.05979 -1.42439,0.179367 -0.38687,0.119577 -0.62602,0.573271 -0.71746,1.361079 -0.0898,0.773986 0.0274,1.16098 0.35171,1.16098 0.006,0 0.0117,-1.24e-4 0.0176,-3.7e-4 h 2.02579 c 0.0447,-0.0033 0.0901,-0.005 0.13611,-0.005 0.34537,0 0.72908,0.0931 1.15112,0.279291 -0.11255,-0.984759 -0.62603,-1.976554 -1.54045,-2.975381 z M 148.14913,0 c 0.95662,0 1.74443,0.53458386 2.36342,1.6037516 0.21102,0.3516998 0.83704,0.7033995 1.87808,1.0550996 0.71746,0.2110198 1.02696,0.5064478 0.92848,0.8862839 l -0.0211,0.2532233 C 151.96155,3.6717466 150.84315,3.5099647 149.9428,3.313013 l -1.64596,-0.2954277 c -0.008,-2.307e-4 -0.0165,-3.46e-4 -0.0247,-3.46e-4 -0.48987,0 -0.73134,0.4151213 -0.72442,1.2453635 0.007,0.8440794 0.36225,1.6002341 1.06565,2.2684641 0.7034,0.6682299 1.06213,1.6354048 1.0762,2.9015244 0,1.0269647 -0.48886,1.7620167 -1.46659,2.2051587 -0.97772,0.443142 -1.9238,0.917936 -2.83822,1.424384 -0.91441,0.506448 -1.43493,0.900353 -1.56154,1.181712 0.0703,1.491208 0.25322,2.454866 0.54865,2.890973 0.49238,0 1.35053,-0.07034 2.57444,-0.211021 0.37984,0.05627 0.6401,0.179368 0.78078,0.369287 0.14068,0.189919 0.11254,0.39742 -0.0844,0.622508 -0.0941,-0.135856 -0.18423,-0.203786 -0.27052,-0.203786 -0.0299,0 -0.0593,0.0081 -0.0882,0.02442 -0.11254,0.06331 -0.3939,0.09496 -0.84407,0.09496 h -2.068 c -0.1016,-0.01954 -0.19778,-0.02931 -0.28852,-0.02931 -0.23595,0 -0.4352,0.06604 -0.59777,0.198124 -0.19695,-0.01407 -0.36576,-0.07034 -0.50644,-0.168816 -0.621,0.01809 -1.14059,0.02713 -1.55875,0.02713 -0.55755,0 -0.9348,-0.01608 -1.13176,-0.04823 -0.34466,-0.05627 -0.65768,-0.10551 -0.93904,-0.147715 l -0.71746,0.232122 c -0.008,6.4e-4 -0.0163,9.59e-4 -0.024,9.59e-4 -0.16115,0 -0.18129,-0.140999 -0.0604,-0.423 0.61899,-0.337631 0.75967,-1.188745 0.42204,-2.553341 v 0 c -0.11894,0.0026 -0.23404,0.0038 -0.34531,0.0038 -1.11265,0 -1.84163,-0.127891 -2.18693,-0.383672 -1.4068,0.253223 -2.55334,0.499413 -3.43963,0.738569 l -0.14771,-0.253222 c 0.36577,-0.407973 0.64009,-0.668231 0.82298,-0.780775 v 0 l -0.92849,0.189918 c -0.15006,0.05627 -0.25401,0.08441 -0.31184,0.08441 -0.11567,0 -0.0469,-0.112545 0.20633,-0.337632 0.0563,-0.154748 0.46424,-0.457209 1.22392,-0.907386 v 0 l -1.28722,0.253224 c -0.14069,-0.900351 0.83704,-1.540446 2.93317,-1.920281 1.09731,-0.253224 2.0891,-0.745605 2.97538,-1.47714 1.16765,-1.0269632 2.93318,-1.779601 5.2966,-2.2579138 1.25206,-0.084407 1.94842,-0.4677601 2.0891,-1.1500577 0.14068,-0.6822981 0.13716,-1.7690508 -0.0106,-3.2602581 -0.14771,-1.4912075 0.0598,-2.46189934 0.62251,-2.9120754 C 146.90411,0.18288399 147.45979,0 148.14913,0 Z"
     style="fill:#cd853f;stroke:none"
     id="path34" />
  <path
     d="m 137.79673,2.6971435 c 0.57905,0.045714 0.89905,0.3352375 0.96,0.8685705 -0.0762,0.5790483 -0.39619,0.8838104 -0.96,0.9142867 -0.56381,-0.030476 -0.86095,-0.3352384 -0.89143,-0.9142867 0.0457,-0.533333 0.34286,-0.8228567 0.89143,-0.8685705 z m -0.0686,-1.92000088 c -0.41143,0 -0.79238,0.0761906 -1.14286,0.22857188 -0.35047,0.1523813 -0.65904,0.3619051 -0.92571,0.6285717 -0.26667,0.2666667 -0.47619,0.5714286 -0.62857,0.9142853 -0.15238,0.342857 -0.22857,0.7047617 -0.22857,1.0857146 0,0.3961904 0.0762,0.7657143 0.22857,1.1085716 0.15238,0.342857 0.3619,0.6438096 0.62857,0.9028572 0.26667,0.2590475 0.57524,0.4609522 0.92571,0.6057147 0.35048,0.1447618 0.73143,0.2171424 1.14286,0.2171424 0.41143,0 0.79619,-0.072381 1.15429,-0.2171424 0.35809,-0.1447625 0.66666,-0.3466672 0.92571,-0.6057147 0.25905,-0.2590476 0.46476,-0.5600002 0.61714,-0.9028572 0.15238,-0.3428573 0.22858,-0.7123812 0.22858,-1.1085716 0,-0.3809529 -0.0762,-0.7428576 -0.22858,-1.0857146 -0.15238,-0.3428567 -0.35809,-0.6476186 -0.61714,-0.9142853 -0.25905,-0.2666666 -0.56762,-0.4761904 -0.92571,-0.6285717 -0.3581,-0.15238126 -0.74286,-0.22857188 -1.15429,-0.22857188 z M 137.77387,0 c 0.50286,0 0.97524,0.09523818 1.41715,0.28571455 0.4419,0.19047639 0.82286,0.44952392 1.14286,0.77714265 0.32,0.3276194 0.57523,0.7085717 0.76571,1.1428571 0.19048,0.4342861 0.28571,0.9028576 0.28571,1.4057143 0,0.5028569 -0.0952,0.9714284 -0.28571,1.4057144 -0.19048,0.4342861 -0.44571,0.8114293 -0.76571,1.1314292 -0.32,0.3199998 -0.70096,0.5752384 -1.14286,0.7657147 -0.44191,0.1904755 -0.91429,0.2857136 -1.41715,0.2857136 -0.50285,0 -0.97142,-0.095238 -1.40571,-0.2857136 -0.43428,-0.1904763 -0.81524,-0.4457149 -1.14286,-0.7657147 -0.32762,-0.3199999 -0.58666,-0.6971431 -0.77714,-1.1314292 -0.19048,-0.434286 -0.28571,-0.9028575 -0.28571,-1.4057144 0,-0.5028567 0.0952,-0.9714282 0.28571,-1.4057143 0.19048,-0.4342854 0.44952,-0.8152377 0.77714,-1.1428571 0.32762,-0.32761873 0.70858,-0.58666626 1.14286,-0.77714265 C 136.80245,0.09523818 137.27102,0 137.77387,0 Z"
     style="fill:#cd853f;stroke:none"
     id="path35" />
  <path
     d="m 120.0689,2.7281567 q 0.12914,0 0.26868,0.059803 -0.0978,0.061132 -0.0978,0.244527 -0.0708,0.077862 -0.15386,0.077862 -0.0604,0 -0.12735,-0.041184 -0.0538,-0.098625 -0.23251,-0.098625 -0.065,0 -0.1465,0.013042 0.22247,-0.2554245 0.48935,-0.2554245 z m -7.16494,3.7766134 q 0.42792,0.3178851 0.51351,0.6846753 h 7.61701 q 0.0856,-0.3667902 0.51351,-0.6846753 z m 0.63577,1.1370502 -0.55018,3.3500207 h 3.05658 V 8.8155489 h 2.35969 v 2.1762921 h 3.05659 l -0.55019,-3.3500207 z m 6.4976,-5.0619806 q -0.14397,0 -0.29884,0.098082 -0.66022,0.061132 -1.14928,0.3423379 0,0.2934329 -2.84873,0.2934329 -2.94655,0.073358 -3.22776,0.2567528 -0.66022,0.2200748 -0.89252,0.4523748 -0.72136,0.6724495 -1.08815,2.1885164 l -0.15894,1.2959929 q -0.20785,1.0392397 -0.33622,1.6505564 -0.12838,0.6113178 -0.49517,1.846181 0.62354,-0.574641 1.675,-4.3648065 0.15895,-0.7702612 0.58687,-1.2837677 0.70913,-0.5868656 1.24709,-0.6479965 0.0283,-7.642e-4 0.0546,-7.642e-4 0.39472,0 0.34888,0.1719324 0.0856,0.195622 0.24452,0.195622 0.67245,-0.2323005 0.67245,-0.7702605 -0.0122,-0.2812057 -0.29343,-0.3178844 -0.0808,0.00986 -0.15344,0.00986 -0.37742,0 -0.53124,-0.2666135 0.40347,-0.085584 0.72136,-0.085584 0.53796,0.073358 0.67245,0.6846759 0,0.3667903 1.38158,0.427922 1.03924,0 1.28376,0.2812057 0.73358,-0.1100369 0.73358,-0.5257322 -0.0733,-0.5257334 -0.55018,-0.5501863 l -0.4157,-0.1589426 V 3.65603 q 0.0894,-0.089427 0.22485,-0.089427 0.16081,0 0.38647,0.1261065 0.64799,0.073358 0.74581,0.8558443 1.02582,-0.7156885 1.35922,-0.7156885 0.008,0 0.0162,4.474e-4 0.0207,0.00117 0.0416,0.00117 0.3066,0 0.66143,-0.2518112 l 0.13449,0.1833955 0.15894,-0.2567534 0.13449,0.1711689 0.15894,-0.2934322 0.12226,0.2689793 0.23231,-0.4034696 0.13449,0.342338 0.19562,-0.4279225 0.17117,0.3545645 0.20784,-0.440149 0.15895,0.2445277 q 0.25428,-0.6225563 -0.1077,-0.6225563 -0.14276,0 -0.38136,0.096823 -0.39639,-0.077863 -0.85835,-0.077863 -0.33597,0 -0.70662,0.041183 -0.1766,-0.1836667 -0.37361,-0.1836667 z M 119.89743,2.25 q 0.28121,0 0.51351,0.1833954 0.47683,-0.030566 0.8589,-0.030566 0.38207,0 0.66939,0.030566 0.19322,-0.049124 0.34872,-0.049124 0.42504,0 0.56826,0.3670089 0.0489,0.1589426 0,0.4646012 l -0.2323,0.171169 0.18339,0.1100368 q 0,0.2222973 -0.21219,0.2222973 -0.0212,0 -0.0446,-0.00222 -1.24709,0.342338 -2.57976,0.4646011 -1.56497,0.8313915 -1.56497,1.0270141 0,0.1833947 0.48905,0.2689793 0.69597,-0.1880977 1.10255,-0.1880977 0.12197,0 0.2179,0.016929 0.47683,0.024453 0.24453,0.6357695 l -0.0489,-0.1467159 q -0.0159,-0.103313 -0.11444,-0.103313 -0.0531,0 -0.13009,0.029955 l -0.0734,0.220074 q -0.0795,-0.2078475 -0.17729,-0.2078475 -0.0978,0 -0.21396,0.2078475 -0.0326,-0.2037727 -0.21464,-0.2037727 -0.091,0 -0.21939,0.050943 -0.15784,0.062635 -0.54672,0.062635 -0.55997,0 -1.59901,-0.1298797 -0.002,3.304e-4 -0.005,3.304e-4 -0.0836,0 -0.17876,-0.4282523 0,-0.1956212 -2.06626,-0.2567534 -0.13449,0 -0.56241,0.1833953 0,0.1833962 0.47683,0.2689795 0.70537,-0.1880974 1.11412,-0.1880974 0.12262,0 0.21855,0.016929 0.47683,0.024453 0.24453,0.6357695 l -0.0489,-0.1467159 q -0.0159,-0.1033128 -0.11443,-0.1033128 -0.0531,0 -0.13009,0.029955 l -0.0734,0.220074 q -0.0795,-0.2078482 -0.17728,-0.2078482 -0.0978,0 -0.21396,0.2078482 -0.0326,-0.2037724 -0.21464,-0.2037724 -0.091,0 -0.2194,0.050943 -0.15784,0.062635 -0.54671,0.062635 -0.55997,0 -1.59901,-0.1298799 -0.002,3.304e-4 -0.005,3.304e-4 -0.0836,0 -0.17876,-0.4282524 -0.80694,0.183395 -1.18596,1.1859566 -0.4646,1.7239161 -1.11259,3.4600555 -0.648,1.4671639 -1.1126,1.4671639 -0.25675,-0.03668 -0.28121,-0.281206 0.17117,-0.562414 0.35457,-1.3571271 0.55019,-2.4697211 0.59909,-3.1299424 0.14671,-0.9414314 0.37901,-1.5527481 0.4646,-1.2715404 1.5772,-1.8217261 0.89253,-0.342338 1.55275,-0.342338 4.267,-0.1100367 4.267,-0.146716 Q 119.10272,2.25 119.89743,2.25 Z m 2.43305,3.7779417 q 0.22007,0.183395 -0.0611,0.4768284 -0.61132,0.3178851 -0.78249,0.6846753 0.41569,0 0.41569,0.2445261 0,0.2200749 -0.50128,0.2200749 l 0.63577,3.8268486 h -4.18141 V 9.3657335 h -1.25931 v 2.1151615 h -4.13251 l 0.56242,-3.8390747 q -0.46461,0 -0.47683,-0.2078488 0,-0.2445261 0.41569,-0.2445261 -0.15894,-0.3667902 -0.77026,-0.6846753 -0.29343,-0.2934334 -0.11003,-0.4768284 z"
     style="fill:#cd853f;stroke:none"
     id="path36" />
  <path
     d="m 116.02703,13.205676 c -0.49664,0 -0.83283,0.183375 -1.00092,0.557765 h 1.98656 c -0.17574,-0.37439 -0.50428,-0.557765 -0.98564,-0.557765 z m -6.33407,1.10789 v 0.893952 h 12.6605 v -0.893952 z m 6.33407,-1.566327 c 0.85575,0 1.39059,0.336187 1.58925,1.016202 h 5.26438 v 1.986561 h -13.73019 v -1.986561 h 5.27967 c 0.2063,-0.680015 0.7335,-1.016202 1.59689,-1.016202 z"
     style="fill:#cd853f;stroke:none"
     id="path37" />
  <path
     d="m 104.37594,2.700842 c -0.80552,0 -1.81378,0.4137974 -2.30167,0.9016841 -0.42685,0.4268499 -0.48265,0.9927733 -0.4983,1.5186258 h 5.57621 c -0.0157,-0.5258525 -0.0714,-1.0917759 -0.4983,-1.5186258 -0.48789,-0.4878867 -1.47243,-0.9016841 -2.27794,-0.9016841 z m 0,-0.450842 c 0.9556,0 1.98381,0.4414543 2.58641,1.0440552 0.61807,0.6180758 0.68812,1.431767 0.68812,2.0406534 V 5.5719939 H 101.1014 V 5.3347086 c 0,-0.6088864 0.0463,-1.4225776 0.6644,-2.0406534 C 102.3684,2.6914543 103.42034,2.25 104.37594,2.25 Z"
     style="fill:#cd853f;stroke:none"
     id="path38" />
  <path
     d="m 102.96409,9.9602393 0.0475,5.2677337 2.77623,0.04746 0.0237,-5.2914622 z m -0.47457,-0.450842 3.77284,0.023729 -0.0237,6.2168742 -3.67792,-0.07118 z"
     style="fill:#cd853f;stroke:none"
     id="path39" />
  <path
     d="m 122.88066,0.375 c 9.625,0 9.625,17.25 0,17.25"
     style="fill:none;stroke:#cd853f;stroke-width:1"
     id="path40" />
  <path
     d="M 122.88066,0.375 H 101.1014"
     style="fill:none;stroke:#cd853f;stroke-width:1"
     id="path41" />
  <path
     d="M 122.88066,17.625 H 101.1014"
     style="fill:none;stroke:#cd853f;stroke-width:1"
     id="path42" />
  <path
     d="m 93.4139,0.375 v 17.25"
     style="fill:none;stroke:#cd853f;stroke-width:1"
     id="path43" />
  <path
     d="m 101.1014,0.375 c -9.624999,0 -9.624999,17.25 0,17.25"
     style="fill:none;stroke:#cd853f;stroke-width:1"
     id="path44" />
  <path
     d="M 75.014594,2.1059582 V 4.1838369 H 90.31789 V 2.1059582 Z M 90.261732,0 V 1.5724488 H 90.8514 V 4.7173463 H 74.481085 V 1.5724488 h 0.47735 V 0 h 0.53351 v 1.5724488 h 1.319734 V 0 h 0.533509 v 1.5724488 h 1.319734 V 0 h 0.533509 v 1.5724488 h 1.291655 V 0 h 0.561588 v 1.5724488 h 1.291655 V 0 h 0.533509 v 1.5724488 h 1.319734 V 0 h 0.533509 v 1.5724488 h 1.319734 V 0 h 0.53351 v 1.5724488 h 1.291654 V 0 h 0.533509 v 1.5724488 h 1.319734 V 0 Z"
     style="fill:#cd853f;stroke:none"
     id="path45" />
  <path
     d="M 89.278951,6.4923896 89.615904,7.2224551 90.682923,9.6092077 90.8514,9.946161 90.149414,10.283114 89.980937,9.9180816 89.250872,8.2613945 88.885839,8.9072216 88.548886,9.5811283 88.211932,8.9072216 87.81882,8.2052356 87.453787,8.9072216 87.116834,9.5811283 86.779881,8.9072216 86.414848,8.2052356 86.021736,8.9072216 85.684782,9.5811283 85.347829,8.9072216 84.982796,8.233315 84.617764,8.9072216 84.252731,9.5811283 83.915778,8.9072216 83.550745,8.2052356 83.185712,8.9072216 82.820679,9.5811283 82.483726,8.9072216 82.118693,8.2052356 81.75366,8.9072216 81.388628,9.5811283 81.051674,8.9072216 80.686642,8.2052356 80.321609,8.9072216 79.984656,9.5811283 79.619623,8.9072216 79.25459,8.2052356 78.889557,8.9072216 78.552604,9.5811283 78.187571,8.9072216 77.822539,8.2052356 77.429426,8.9353011 77.092473,9.5530488 76.72744,8.9353011 l -0.393112,-0.758145 -0.98278,1.7690049 -0.196556,0.336953 -0.673907,-0.3650324 0.168477,-0.3369533 1.347813,-2.4148321 0.336953,-0.5896683 0.336953,0.6177478 0.421192,0.7300655 0.393112,-0.7300655 0.365033,-0.6458272 0.308874,0.6458272 0.393112,0.701986 0.365033,-0.701986 0.336953,-0.6739067 0.336953,0.6739067 0.365033,0.701986 0.393112,-0.701986 0.336954,-0.6739067 0.336953,0.6739067 0.393112,0.701986 0.365033,-0.701986 0.336953,-0.6739067 0.336954,0.6739067 0.365032,0.701986 0.393112,-0.701986 0.336954,-0.6739067 0.336953,0.6739067 0.365033,0.6739066 0.365033,-0.6739066 0.365032,-0.6739067 0.336954,0.6739067 0.365032,0.701986 0.365033,-0.701986 0.365033,-0.6739067 0.336953,0.6739067 0.365033,0.701986 0.365033,-0.701986 0.336953,-0.6739067 0.365033,0.6739067 0.365033,0.701986 0.365032,-0.701986 z"
     style="fill:#cd853f;stroke:none"
     id="path46" />
  <path
     d="m 89.61973,12.647887 c -0.03647,0 -0.07453,0.0014 -0.114208,0.0043 -0.502456,0.03589 -1.052768,0.227296 -1.650935,0.574239 0.598167,0.370861 1.148479,0.57125 1.650935,0.601157 0.03262,0.0019 0.06417,0.0029 0.09462,0.0029 0.4386,0 0.652312,-0.201359 0.641121,-0.60407 0.01102,-0.385655 -0.19616,-0.578491 -0.621535,-0.578491 z m 0,3.571053 c -0.03647,0 -0.07453,0.0014 -0.114208,0.0042 -0.502456,0.03589 -1.052768,0.227297 -1.650935,0.57424 0.598167,0.370861 1.148479,0.571249 1.650935,0.601156 0.03262,0.0019 0.06417,0.0029 0.09462,0.0029 0.438601,0 0.652314,-0.201358 0.641123,-0.604069 0.01102,-0.385655 -0.19616,-0.57849 -0.621535,-0.57849 z m 0.06643,-4.160783 c 0.03301,0 0.06551,5.99e-4 0.09751,0.0018 0.640032,0.02393 0.995944,0.412737 1.067727,1.166426 -0.09432,0.801717 -0.435547,1.202573 -1.02369,1.202573 -0.0086,0 -0.01735,-8.7e-5 -0.0261,-2.6e-4 C 89.197465,14.416721 88.351065,14.201385 87.2624,13.78267 H 76.8902 c -0.849399,0.07178 -1.277084,0.46657 -1.283064,1.184364 -0.006,0.717804 0.421706,1.154468 1.283064,1.309991 h 10.3722 c 0.988767,-0.431881 1.796683,-0.647816 2.423759,-0.647816 0.03301,0 0.06551,5.98e-4 0.09751,0.0018 0.640032,0.02393 0.995944,0.412736 1.067727,1.166427 -0.09432,0.801717 -0.435547,1.202571 -1.02369,1.202571 -0.0086,0 -0.01735,-8.6e-5 -0.0261,-2.6e-4 -0.604146,-0.01197 -1.450546,-0.227305 -2.539211,-0.64602 h -9.797961 c -0.03765,7.03e-4 -0.07495,0.0011 -0.1119,0.0011 -1.219372,0 -2.058389,-0.38318 -2.51704,-1.149535 -0.472551,-0.789576 -0.472551,-1.579162 0,-2.368739 0.452001,-0.755241 1.273417,-1.132872 2.46424,-1.132872 0.05414,0 0.109037,7.81e-4 0.1647,0.0023 H 87.2624 c 0.988767,-0.43188 1.796683,-0.647816 2.423759,-0.647816 z"
     style="fill:#cd853f;stroke:none"
     id="path47" />
  <path
     d="m 69.858124,0.63437962 q 0.371586,0 0.371586,0.43716028 0,0.3715857 -0.371586,0.3715857 -0.393444,-0.021858 -0.393444,-0.4153018 0,-0.39344418 0.393444,-0.39344418 z m 1.44263,0.28415369 V 1.3119775 l 0.852461,0.1530066 Q 71.759771,1.0496814 71.300754,0.91853331 Z M 71.257038,1.4431256 Q 70.754303,1.8365708 71.082173,2.0332925 71.584907,1.8584283 71.825346,1.5742736 Z M 69.726976,0.43765704 q -1.027327,0 -1.639352,0.78688836 -0.612024,0.7868895 -0.65574,2.4262408 -1.595635,0.3278698 -2.120228,1.4426291 -0.08493,0.7219392 0.325176,0.7219392 0.01206,0 0.02455,-6.243e-4 0.43716,-0.021859 0.688527,-0.2404386 0.09141,-0.079484 0.138013,-0.079484 0.08156,0 0.02592,0.2434196 -0.08743,0.382515 -0.961752,0.9289658 -0.874322,0.5464498 -0.142078,0.907107 0.181684,0.089487 0.386918,0.089487 0.62192,0 1.460085,-0.8217296 1.114759,-1.092902 1.180333,-1.6612101 0.06557,-0.5683081 -0.459019,-1.0491844 -0.31192,-0.2859268 -0.214269,-0.2859268 0.06658,0 0.323559,0.1329201 0.633883,0.3278709 0.66667,0.9617525 0.03279,0.6338831 -0.502735,1.3879847 -0.53552,0.7541017 -2.109298,1.9125767 -0.160875,0.083934 -0.364277,0.083934 -0.43223,0 -1.056495,-0.3790171 Q 63.803452,7.388507 65.639526,6.2300315 64.961927,6.0551678 64.94007,5.639866 q -0.852463,0.2841534 -4.786906,5.28964 -1.049185,0.699457 -1.071043,1.027327 0.02186,0.306013 0.32787,0.371586 0.06557,0.01405 0.133156,0.01405 0.247799,0 0.522584,-0.188915 1.22405,0.590166 2.371595,0.612024 0.0604,0.0012 0.119673,0.0012 1.066987,0 1.771046,-0.372736 v 0 q -0.721314,0.633882 -0.502735,1.333338 0.105979,0.339131 0.160574,0.339131 0.05801,0 0.05801,-0.382846 0,-0.743174 1.901647,-1.420771 v 0.830604 q 0.111955,0.470214 0.178037,0.470214 0.06293,0 0.08426,-0.426498 0.131148,-0.939895 0.622954,-2.021866 0.491804,-1.081973 1.562847,-2.9945492 Q 69.46468,6.2081742 69.759762,5.3666407 70.054846,4.5251067 70.032988,3.8037918 70.01113,3.0824769 70.328072,2.743678 70.645012,2.4048791 70.513864,2.0114349 70.382716,1.6179897 70.907309,1.2682615 V 0.89667577 Q 70.339,0.43765704 69.726976,0.43765704 Z M 65.573952,13.027876 q -1.071043,0.306012 -1.071043,0.721314 l 0.721315,2.688537 q 0.08743,0.480877 0.590166,0.480877 h 0.874322 v -0.04372 l -1.11476,-3.409852 z M 69.648094,0 q 0.03914,0 0.07888,4.9679518e-4 0.852463,0 1.726783,0.69945639482 0.502735,0.17486409 1.027327,0.80874691 -0.721315,0.6557404 -1.311481,0.808747 -0.06557,0.3060121 -0.415302,0.8524619 -0.02186,1.44263 -0.393444,2.3934541 -0.371587,0.9508232 -2.491815,5.1038469 -1.049184,2.185802 -1.049184,2.688536 0,0.765031 0.961752,3.431709 0,0.153006 1.311481,0.240438 1.967222,0.06558 1.967222,0.546451 0,0.284154 -0.262296,0.284154 h -5.814234 q -0.546449,-0.43716 -0.612024,-0.743172 -0.524592,0.21858 -0.568309,0.590166 Q 63.729826,18 63.594198,18 q -0.02543,0 -0.05304,-0.01036 -0.174864,-0.06557 -0.174864,-0.284153 0.153007,-0.590166 0.765031,-1.136618 l -0.699457,-2.950832 q -2.120227,-0.06557 -3.694005,-0.677599 -0.291441,0.06557 -0.534308,0.06557 -0.485733,0 -0.777173,-0.262296 -0.43716,-0.393445 0.174864,-1.22405 1.333339,-1.333338 2.53553,-2.9289738 Q 63.606731,5.5524337 64.524768,5.0715565 64.83078,4.4376749 65.257011,4.0660883 65.683242,3.6945024 66.798001,3.1480516 66.81986,1.8584283 67.399096,0.91853331 67.965169,0 69.648094,0 Z"
     style="fill:#cd853f;stroke:none"
     id="path48" />
  <path
     d="m 48.645363,0.50012753 c -0.426068,0 -0.884,0.0857782 -1.172218,0.42593093 -0.461608,0.54478514 -0.559781,1.28759124 -0.595451,1.97613064 -0.06482,1.2513049 -0.08358,2.5048297 -0.07155,3.7577035 h 0.307167 c 0,-1.027143 0,-2.0542864 0,-3.0814293 0.806285,-0.026617 1.142941,-0.6209994 1.214558,-1.0838513 -0.09721,-0.2110981 -0.35632,-0.3883838 -0.442277,-0.6458396 -0.09085,-0.2721196 0.02697,-0.6763407 0.350862,-0.6763407 0.0055,0 0.01106,1.165e-4 0.01668,3.522e-4 0.145783,0.00612 0.269712,0.057446 0.39937,0.057446 0.07287,0 0.147553,-0.016214 0.228941,-0.065783 0.27718,-0.16881584 0.648568,-0.19953968 0.969081,-0.27006131 -0.264292,-0.38599072 -0.66946,-0.37955153 -1.103094,-0.39268137 -0.03375,-0.001022 -0.06781,-0.001577 -0.10207,-0.001577 z m 1.434964,0.75452707 v 0 c -0.393694,0.069869 -0.809177,0.1455366 -1.119947,0.4176377 -0.0577,0.07784 -0.141221,0.1292882 -0.218924,0.1292882 -0.06869,0 -0.132833,-0.040203 -0.170586,-0.1379185 -0.05245,-0.073654 -0.105426,-0.1034396 -0.153145,-0.1034396 -0.145191,0 -0.241732,0.275748 -0.126928,0.4305151 0.08894,0.222084 0.358695,0.3531096 0.454381,0.5343918 -0.09222,0.3616628 -0.254056,0.7096627 -0.528155,0.9719871 -0.211487,0.2024022 -0.467388,0.3850025 -0.766682,0.407967 0.0098,1.29498 0.0033,2.5903036 0.03142,3.885021 0.04105,1.1956698 0.177282,2.3874316 0.39469,3.5636816 0.03036,0.168301 -0.123768,0.272027 -0.211641,0.391654 h 5.261101 c -0.381812,-0.144865 -0.766042,-0.283912 -1.146324,-0.432461 -0.205088,-0.107419 -0.11025,-0.357751 -0.05488,-0.526718 0.387074,-1.3650413 0.931509,-2.6803821 1.551674,-3.9548477 -0.09397,-0.1246214 -0.248564,-0.1823888 -0.403103,-0.1823888 -0.08822,0 -0.176427,0.018826 -0.253321,0.054789 -0.356608,0.4231445 -0.695836,0.8634401 -1.045742,1.2931979 -0.478437,0.5928904 -0.95143,1.1904906 -1.433279,1.7804273 -0.04818,0.046677 -0.105197,0.066941 -0.161752,0.066941 -0.146165,0 -0.289219,-0.1353514 -0.268443,-0.2998661 C 49.457143,7.8335858 49.160687,6.12815 48.963685,4.4093937 48.888838,3.8789811 49.077921,3.3175125 49.45287,2.9372722 c 0.04399,-0.040022 0.09361,-0.055229 0.146135,-0.055229 0.166266,0 0.361705,0.1523537 0.500286,0.1523537 0.05682,0 0.10408,-0.025611 0.135853,-0.097835 0.173947,-0.1769301 -0.394236,-0.081816 -0.132316,-0.2373547 v 0 c 0.01702,0.00285 0.03244,0.00421 0.04642,0.00421 0.238791,0 0.05965,-0.3946397 0.328248,-0.459754 -0.04451,-0.1236055 -0.122922,-0.212853 -0.223498,-0.212853 -0.04559,0 -0.09574,0.018341 -0.149353,0.060137 -0.05973,0.014625 -0.119686,0.021053 -0.179492,0.021053 -0.207174,0 -0.4126,-0.077136 -0.601176,-0.1578843 0.215556,-0.2155558 0.292836,-0.2612186 0.436994,-0.2612186 0.149766,0 0.362064,0.046298 0.423204,0.095255 v 0 c 0,2e-7 0,2e-7 0,2e-7 h 10e-7 c 0,0 -10e-7,0 -10e-7,-2e-7 v 0 C 50.084395,1.6286015 50.053628,1.4411865 50.080327,1.2546546 Z M 48.670095,0 c 0.03777,0 0.07545,5.4682058e-4 0.113,0.00157686 0.580816,0.01593454 1.226844,0.17150522 1.572984,0.6777229 0.152982,0.22180358 0.268767,0.49042864 0.217158,0.76449464 0.139151,0.3207712 0.441389,0.5674891 0.488858,0.9264398 0.04533,0.2905837 -0.393399,0.2309539 -0.2862,0.5122344 -0.0064,0.2112153 -0.240464,0.4192713 -0.162831,0.5541415 0.135132,0.5754843 0.2946,1.1835177 0.702787,1.6312616 0.06937,0.1202651 0.157921,0.1550791 0.254518,0.1550791 0.130285,0 0.275209,-0.06333 0.407462,-0.065753 v 0 c 0.271554,0.1592368 -0.07569,0.414267 -0.284048,0.414267 -0.0085,0 -0.01684,-4.283e-4 -0.02486,-0.00131 -0.02069,0.00168 -0.04116,0.0025 -0.06139,0.0025 -0.42374,0 -0.744515,-0.3600208 -0.939627,-0.7048177 -0.250892,-0.4101093 -0.434764,-0.8714017 -0.585251,-1.3184594 -0.113698,-0.044812 -0.227941,-0.087655 -0.323746,-0.087655 -0.111995,0 -0.198792,0.058547 -0.230067,0.2409363 -0.184298,0.4871853 -0.0093,1.0043131 0.04119,1.4994307 0.184356,1.2641108 0.369947,2.5280579 0.562506,3.7909477 0.701436,-0.8719299 1.399961,-1.7462794 2.103215,-2.6166981 0.16153,-0.1634595 0.384557,-0.2272052 0.610724,-0.2272052 0.148439,0 0.29823,0.027459 0.432875,0.072208 0.282895,0.1168736 0.584875,0.4125115 0.483677,0.745988 -0.619753,1.2816582 -1.175904,2.5993722 -1.561416,3.9720857 0.472075,0.180114 0.948654,0.349726 1.417885,0.536468 0.189506,0.110948 0.09737,0.331851 0.05724,0.497205 -0.01113,0.153776 -0.133871,0.277246 -0.284902,0.277246 -0.01653,0 -0.0334,-0.0015 -0.0505,-0.0046 h -6.215713 c -0.08634,-0.05146 -0.299646,-0.09298 -0.328934,-0.115006 0.117295,-0.09675 0.0684,-0.266644 0.193499,-0.362333 0.124607,-0.147275 0.249215,-0.294551 0.373823,-0.441825 -0.245244,-1.3586871 -0.381115,-2.7376101 -0.393988,-4.118408 -0.04634,2.852e-4 -0.09883,0.00171 -0.153529,0.00171 -0.259459,0 -0.568796,-0.032068 -0.508884,-0.3699676 -0.01499,-1.4445456 -0.01343,-2.8920743 0.09555,-4.3326784 C 46.46026,1.7526067 46.674346,0.94031686 47.276274,0.42961471 47.661443,0.09480542 48.17279,0 48.670095,0 Z"
     style="fill:#cd853f;stroke:none"
     id="path49" />
  <path
     d="m 44.263376,13.999831 c 0.120499,0.717883 0.848582,1.592453 1.88227,2.285811 1.133731,0.760463 2.606661,1.306784 3.896365,1.306784 1.289703,0 2.762633,-0.546321 3.896365,-1.306784 1.033687,-0.693358 1.761771,-1.567928 1.88227,-2.285811 z m 11.778888,-0.407574 c 0.112544,1.1e-5 0.203776,0.09124 0.203787,0.203787 0,1.006358 -0.887445,2.027758 -2.08075,2.828181 C 52.971996,17.424648 51.444903,18 50.042011,18 c -1.402892,0 -2.930198,-0.575352 -4.123503,-1.375775 -1.193305,-0.800423 -2.08075,-1.821823 -2.08075,-2.828181 1.2e-5,-0.112544 0.09124,-0.203776 0.203787,-0.203787 z"
     style="fill:#cd853f;stroke:none"
     id="path50" />
  <path
     d="m 37.586328,0 q 0.155493,0 0.404282,0.08292941 0.667361,0.51033652 1.629148,1.57026429 0.785133,0.5888489 1.040301,1.2169548 0.05889,0.1766554 0.353309,0.7753185 0.294425,0.598663 0.824389,2.4829804 -0.02195,0.5706977 -0.178904,0.5706977 -0.123752,0 -0.331432,-0.3547868 Q 41.170394,5.8536501 40.87597,4.9998191 40.581545,4.1459885 39.933811,3.5767676 39.560874,3.2823433 39.305705,3.1842013 q -0.588849,0 -0.588849,0.7851328 v 9.6963809 q -0.03925,0.549592 0.294425,0.883274 0.647734,0.471078 0.883273,1.295467 0.137399,0.745875 -0.117769,2.041343 Q 39.619759,18 39.379678,18 q -0.09003,0 -0.191742,-0.01606 0.176654,-0.706618 0.176654,-1.236584 0.09814,-1.079556 -0.588849,-1.570263 -0.176654,-0.137398 -0.45145,-0.137398 -0.314053,0 -0.47108,0.09814 -0.667361,0.510336 -0.56922,1.60952 0,0.529966 0.176654,1.216956 -0.124313,0.02617 -0.231177,0.02617 -0.213731,0 -0.357671,-0.104686 -0.255168,-1.295468 -0.137399,-2.021714 0.215911,-0.844018 0.844017,-1.315096 0.392566,-0.333682 0.35331,-0.883274 V 3.9693341 Q 37.951353,2.418698 39.050537,2.359813 38.756113,1.8691058 37.931725,1.0447163 37.558786,0.84843372 37.342876,0.35772655 37.263381,0 37.586328,0 Z"
     style="fill:#cd853f;stroke:none"
     id="path51" />
  <path
     d="m 30.109735,0.60112271 c -1.074022,0 -2.418374,0.55172979 -3.06889,1.20224539 -0.569134,0.5691333 -0.643537,1.3236977 -0.664399,2.0248344 h 7.434939 C 33.790523,3.1270658 33.71612,2.3725014 33.146986,1.8033681 32.49647,1.1528525 31.183756,0.60112271 30.109735,0.60112271 Z M 30.109735,0 c 1.274134,0 2.645078,0.58860576 3.448546,1.3920736 0.8241,0.824101 0.917503,1.9090227 0.917503,2.7208713 V 4.4293252 H 25.743685 V 4.1129449 c 0,-0.8118486 0.06176,-1.8967703 0.885865,-2.7208713 C 27.433018,0.58860576 28.8356,0 30.109735,0 Z"
     style="fill:#cd853f;stroke:none"
     id="path52" />
  <path
     d="m 30.088924,9.6964916 q -0.811621,0 -1.654458,0.3537834 l 1.602431,1.623243 1.644053,-1.623243 Q 30.900545,9.6964916 30.088924,9.6964916 Z m 3.506619,2.1227014 -1.623242,1.623242 1.623242,1.623244 q 0.707567,-1.685676 0,-3.246486 z m -7.013239,0.08324 q -0.707567,1.685674 0,3.246485 l 1.623242,-1.623242 z m 1.269459,-1.373513 q -0.49946,0.228919 -0.79081,0.79081 l 2.205945,2.226756 -2.185135,2.185133 q 0.27054,0.541081 0.811621,0.790811 l 2.185135,-2.185134 2.143512,2.143512 q 0.54108,-0.332973 0.79081,-0.811621 l -2.143512,-2.122701 2.247566,-2.247567 q -0.228918,-0.54108 -0.811621,-0.769999 l -2.226755,2.226755 z m 2.185134,4.828105 -1.623242,1.623242 q 0.79081,0.353784 1.602431,0.353784 0.811621,0 1.644052,-0.353784 z m 0.04162,-6.3472939 q 2.143512,0 3.381754,1.3943229 1.238243,1.394325 1.238243,3.059188 0,1.872972 -1.446351,3.194457 Q 31.805814,17.979189 30.120139,18 28.080682,17.979189 26.800818,16.595272 25.520953,15.211353 25.520953,13.463246 v 0 l 0.02081,0.04162 q -0.02081,-1.58162 1.259055,-3.038377 1.279864,-1.4567559 3.277701,-1.4567559 z"
     style="fill:#cd853f;stroke:none"
     id="path53" />
  <path
     d="m 21.978298,2.0772302 -3.648244,3.2086974 q 0.769206,1.1867798 2.043895,2.3955348 1.208756,-2.8570602 1.604349,-5.6042322 z m 0.971121,-1.58258699 q 0.704115,0 0.545318,0.96722059 -0.681298,0.3296602 -0.571412,0.7472307 0.109887,0.4175706 -0.08791,1.3845757 -0.197796,0.9670041 -1.58237,4.5932718 0.420974,1.4313142 -0.488569,1.4313142 -0.04013,0 -0.08284,-0.00279 -2.461466,4.5273414 -5.428412,7.8898854 h -0.527457 l 0.131861,-1.47249 q 2.37356,-2.219714 5.076778,-7.1866009 -0.791186,-1.6702833 -2.219716,-2.9229924 l -4.373499,3.9339507 q -0.330842,0.1476966 -0.555279,0.1476966 -0.610468,0 -0.433703,-1.0927256 l 4.395477,-3.7581312 q -0.01784,-0.9988553 0.832896,-0.9988553 0.197492,0 0.441792,0.053829 l 3.955928,-3.45044952 q 0.6033,-0.26394397 0.971121,-0.26394397 z"
     style="fill:#cd853f;stroke:none"
     id="path54" />
  <path
     d="m 7.8624046,0.98565065 c -0.3701574,0 -0.8232978,0.14233065 -0.9554188,0.46812735 l 0.048642,10.585334 v 0 C 7.1433757,11.614017 7.7011069,10.823123 9.3577,9.8432493 L 8.1000189,1.0820566 c -0.059002,-0.06269 -0.057455,-0.096406 -0.2376143,-0.096406 z M 6.955628,12.039112 v 0 c 0,0 -2e-7,0 -2e-7,0 h 2e-7 z M 8.0384146,0 C 8.3217551,0 8.5774939,0.04045075 8.758557,0.08983071 L 10.313024,10.464214 c -0.8222913,0.563213 -3.0820726,2.106417 -2.9919594,3.446863 l -0.01685,4.088924 -1.1477021,-0.01578 0.00644,-16.8249145 C 6.5042357,0.23722063 7.3522567,0 8.0384146,0 Z"
     style="fill:#cd853f;stroke:none"
     id="path55" />
  <path
     d="m 1.7058924,0.98565065 c -0.3701575,0 -0.8232979,0.14233065 -0.95541882,0.46812735 l 0.0486422,10.585334 v 0 C 0.98686346,11.614017 1.5445946,10.823123 3.2011877,9.8432493 L 1.9435066,1.0820566 c -0.059002,-0.06269 -0.057455,-0.096406 -0.2376142,-0.096406 z M 0.79911574,12.039112 v 0 c 0,0 -2.4e-7,0 -2.4e-7,0 h 2.4e-7 z M 1.8819023,0 C 2.1652428,0 2.4209816,0.04045075 2.6020448,0.08983071 L 4.1565122,10.464214 C 3.3342205,11.027427 1.0744391,12.570631 1.1645523,13.911077 L 1.1477022,18.000001 0,17.984225 0.00643632,1.1593105 C 0.34772346,0.23722063 1.1957444,0 1.8819023,0 Z"
     style="fill:#cd853f;stroke:none"
     id="path56" />
</svg>
