<?xml version="1.0" encoding="UTF-8" standalone="no"?>
<svg
   width="85.49303436279297"
   height="18.0"
   version="1.1"
   id="svg17"
   sodipodi:docname="middle_left_decoration.svg"
   inkscape:version="1.3.2 (091e20e, 2023-11-25, custom)"
   xmlns:inkscape="http://www.inkscape.org/namespaces/inkscape"
   xmlns:sodipodi="http://sodipodi.sourceforge.net/DTD/sodipodi-0.dtd"
   xmlns="http://www.w3.org/2000/svg"
   xmlns:svg="http://www.w3.org/2000/svg">
  <defs
     id="defs17" />
  <sodipodi:namedview
     id="namedview17"
     pagecolor="#505050"
     bordercolor="#eeeeee"
     borderopacity="1"
     inkscape:showpageshadow="0"
     inkscape:pageopacity="0"
     inkscape:pagecheckerboard="0"
     inkscape:deskcolor="#505050"
     inkscape:zoom="5.2752836"
     inkscape:cx="42.746517"
     inkscape:cy="9.0042553"
     inkscape:window-width="1366"
     inkscape:window-height="697"
     inkscape:window-x="-8"
     inkscape:window-y="-8"
     inkscape:window-maximized="1"
     inkscape:current-layer="svg17" />
  <path
     d="m 78.606505,0.60244662 0.02286,3.47755178 h 0.0033 C 80.883882,3.886532 82.83041,3.74052 84.902016,3.5036736 V 0.86530738 Z M 78.320791,0 l 0.29551,0.013061 6.592653,0.27428588 c 0.158195,0.005894 0.283552,0.13557368 0.284082,0.29388008 V 3.7681654 C 85.49342,3.9183178 85.380977,4.044818 85.231811,4.0620405 83.044231,4.3194056 81.025453,4.466471 78.68324,4.6677533 l -0.04898,0.0049 L 78.722424,18 H 76.955893 L 77.395076,0.02285541 h 0.924082 z"
     style="fill:#cd853f;stroke:none"
     id="path1" />
  <path
     d="m 72.319755,12.115844 c 0.495821,0 0.993762,0.351737 1.493821,1.055211 v 0.737374 c -0.500059,-0.711948 -0.998,-1.067922 -1.493821,-1.067922 -0.495822,0 -0.989524,0.355974 -1.481108,1.067922 v -0.737374 c 0.491584,-0.703474 0.985286,-1.055211 1.481108,-1.055211 z m 0,1.525605 c 0.173749,0 0.349618,0.04662 0.527605,0.139847 0.355974,0.186464 0.533961,0.601767 0.533961,1.24591 l -0.279694,1.703592 -0.277559,-0.101707 0.101708,-0.991643 c 0.0678,-0.711949 -0.0339,-1.078534 -0.305121,-1.298899 -0.135609,-0.110183 -0.220374,-0.165274 -0.304078,-0.165274 -0.0837,0 -0.166349,0.05509 -0.297721,0.165274 -0.262743,0.220365 -0.360213,0.578475 -0.292408,1.273473 l 0.127134,1.017069 -0.328413,0.07628 -0.254267,-1.678165 c 0.01695,-0.644143 0.194938,-1.059446 0.533962,-1.24591 0.169511,-0.09323 0.341142,-0.139847 0.514891,-0.139847 z m -0.362331,-2.351974 c -0.813655,0.237317 -1.254386,0.567864 -1.322191,0.991643 -0.0678,0.423779 -0.09747,1.000119 -0.08899,1.729019 0.0085,0.728901 0.131371,1.428135 0.368687,2.097707 0.237317,0.669571 0.703474,1.055211 1.398471,1.156916 0.711949,-0.101705 1.182344,-0.487345 1.411185,-1.156916 0.22884,-0.669572 0.351736,-1.36457 0.368687,-2.084994 0.01695,-0.720424 -0.0085,-1.296764 -0.07628,-1.729018 -0.0678,-0.432255 -0.508534,-0.76704 -1.32219,-1.004357 z M 73.021077,0 v 1.2204838 h 0.966216 v 0.7628023 h -0.966216 l 0.432255,8.7976539 c 0.830607,0.339023 1.292526,0.792467 1.385758,1.360331 0.09323,0.567864 0.131371,1.148442 0.114419,1.741732 -0.01695,0.593291 -0.08476,1.216246 -0.203414,1.868866 -0.118658,0.652619 -0.428017,1.273438 -0.928076,1.663317 -0.500059,0.389875 -1.131457,0.584815 -1.495907,0.584815 -0.36445,0 -0.995848,-0.199177 -1.495908,-0.597528 -0.500059,-0.398353 -0.809418,-1.014935 -0.928076,-1.650604 -0.118659,-0.635669 -0.186463,-1.254386 -0.203414,-1.856153 -0.01695,-0.601766 0.02119,-1.186581 0.114421,-1.754445 0.09323,-0.567864 0.563626,-1.021308 1.411183,-1.360331 L 71.554867,1.9832861 H 70.66493 l -0.02543,-0.7628023 h 0.991643 V 0 Z"
     style="fill:#cd853f;stroke:none"
     id="path2" />
  <path
     d="m 54.934292,4.2391084 c -2.632335,0 -4.760892,2.128556 -4.760892,4.7608919 0,2.6323357 2.128557,4.7608917 4.760892,4.7608917 2.632336,0 4.760892,-2.128556 4.760892,-4.7608917 0,-2.6323359 -2.128556,-4.7608919 -4.760892,-4.7608919 z m 0,-0.5011465 c 2.903176,0 5.262039,2.3588627 5.262039,5.2620384 0,2.9031757 -2.358863,5.2620387 -5.262039,5.2620387 -2.903176,0 -5.262038,-2.358863 -5.262038,-5.2620387 0,-2.9031752 2.358862,-5.2620384 5.262038,-5.2620384 z"
     style="fill:#cd853f;stroke:none"
     id="path3" />
  <path
     d="m 46.3374,2.5495682 q 0.0428,0.5509915 0.0214,1.0270909 -0.0214,0.4760994 -0.171182,2.0488324 0.299568,-0.080242 0.647281,-0.080242 0.353063,0 0.647282,0.080242 -0.149785,-1.572733 -0.176532,-2.0488324 -0.02675,-0.4760994 0.02675,-1.0270909 z m 0.492148,3.4182868 q -0.390509,0 -0.904054,0.1604831 0.411906,0.2781704 0.481449,0.6365821 0.06419,0.3637616 0.18188,0.3958584 0.112338,0.037446 0.240725,0.037446 0.128386,0 0.235375,-0.037446 0.106988,-0.032097 0.18188,-0.3958584 0.07489,-0.3584117 0.486799,-0.6365821 Q 47.220056,5.967855 46.829548,5.967855 Z m -0.04815,1.4710938 v 0.2744302 0 q 0.02429,0.022125 0.04815,0.046536 0.01331,-0.00242 0.0321,-0.010315 v 0 -0.3106511 z m 0.668679,0.2835197 q -0.155364,0 -0.411,0.1102995 v 0 q 4.4e-5,0.00757 9e-5,0.015153 v 0 q 0.255574,0.1152726 0.41091,0.1152726 0.160483,0 0.219327,-0.053495 0.05349,-0.058844 0,-0.1230366 -0.05884,-0.064194 -0.219327,-0.064194 z m -0.609835,0.1872303 q -0.03036,0.014604 -0.05884,0.032548 h 0 v 3.6478598 h 0.08024 v -3.6583881 0 q -0.0123,-0.011266 -0.0214,-0.02202 z M 47.631963,2.25 q -0.0428,0.8505597 -0.0214,1.3213097 0.0214,0.4707499 0.171182,2.0862783 0.390508,0.1497842 0.390508,0.4012074 0,0.2514234 -0.09094,0.3316647 -0.369111,0 -0.529594,0.5723896 -0.160483,0.5670395 -0.513545,0.5670395 0,0.055867 1.3e-4,0.1128625 v 0 q 0.0078,-0.00548 0.01592,-0.011223 0.165832,-0.1123381 0.422605,-0.1123381 0.256773,0 0.37446,0.1604825 0.112338,0.1604831 0,0.3209661 -0.117687,0.1604831 -0.331665,0.1604831 -0.230025,0 -0.427954,-0.09094 -0.02677,-0.012642 -0.05096,-0.024871 v 0 q 0.01352,1.4327184 0.0991,3.491303 0,0.331664 -0.320966,0.331664 -0.320966,0 -0.320966,-0.331664 0.08334,-2.0045784 0.09835,-3.4156986 v 0 q -0.198465,0.2794023 -0.23743,0.8426217 L 46.027133,8.8351508 Q 46.158475,8.1033883 46.598309,7.881667 h 10e-7 q 3.39e-4,-0.050663 5.83e-4,-0.1005023 v 0 q -0.07755,-0.019516 -0.161786,-0.019516 -0.301301,0 -0.688145,0.2496899 V 7.6689745 q 0.277094,-0.1696007 0.522188,-0.1696007 0.172057,0 0.328343,0.083581 v 0 q 2.9e-5,-0.026659 2.9e-5,-0.053065 -0.342363,0 -0.502846,-0.5670395 -0.160483,-0.5723896 -0.529594,-0.5723896 -0.09094,-0.080241 -0.09094,-0.3316647 0,-0.2514232 0.401207,-0.4012074 0.149784,-1.6155284 0.176531,-2.0862783 0.0321,-0.47075 -0.02675,-1.3213097 z"
     style="fill:#cd853f;stroke:none"
     id="path4" />
  <path
     d="m 43.489433,2.25 c 0.496852,0 0.932528,0.3654933 0.932528,0.8346391 V 11.868278 H 43.81495 V 3.0846391 c 0,-0.2301067 -0.202264,-0.3045566 -0.329353,-0.3045566 -0.133353,0 -0.338691,0.093477 -0.338691,0.3754301 V 8.9286138 H 42.539895 V 3.1555126 C 42.539895,2.6857733 43.0051,2.25 43.489433,2.25 Z"
     style="fill:#cd853f;stroke:none"
     id="path5" />
  <path
     d="m 37.689668,2.7016196 q 1.11074,0.427208 1.11074,1.5013306 0,0.5248552 -0.378384,7.1526788 h 1.440301 q -0.378384,-6.6278236 -0.378384,-7.1526788 0,-1.0741226 1.098534,-1.5013306 z M 41.278214,2.25 q 0.2075,0 0.2075,0.3234573 0,0.3234573 -0.2075,0.3234573 -1.367066,0.4394138 -1.367066,1.3060356 l 0.500444,7.6653288 h -2.538835 l 0.488237,-7.6653288 q 0,-0.8666218 -1.367065,-1.3060356 -0.2075,0 -0.2075,-0.3234573 Q 36.786429,2.25 37.006135,2.25 Z"
     style="fill:#cd853f;stroke:none"
     id="path6" />
  <path
     d="m 48.172255,12.922459 v 0.88668 H 36.78643 v -0.88668 z"
     style="fill:#cd853f;stroke:none"
     id="path7" />
  <path
     d="M 48.172255,14.86332 V 15.75 H 36.78643 v -0.88668 z"
     style="fill:#cd853f;stroke:none"
     id="path8" />
  <path
     d="m 60.196331,0.375 c 9.625,0 9.625,17.25 0,17.25"
     style="fill:none;stroke:#cd853f;stroke-width:1"
     id="path9" />
  <path
     d="M 60.196331,0.375 H 36.786428"
     style="fill:none;stroke:#cd853f;stroke-width:1"
     id="path10" />
  <path
     d="M 60.196331,17.625 H 36.786428"
     style="fill:none;stroke:#cd853f;stroke-width:1"
     id="path11" />
  <path
     d="m 29.098928,0.375 v 17.25"
     style="fill:none;stroke:#cd853f;stroke-width:1"
     id="path12" />
  <path
     d="m 36.786428,0.375 c -9.624999,0 -9.624999,17.25 0,17.25"
     style="fill:none;stroke:#cd853f;stroke-width:1"
     id="path13" />
  <path
     d="m 21.553243,0.88486423 q -3.6326,0.44243207 0,6.72962557 3.632601,-6.2871935 0,-6.72962557 z M 21.553243,0 q 5.029755,0.34928826 0.698577,8.0802073 h 4.284606 V 9.1746448 H 22.298392 V 18.000001 H 20.854666 V 9.1280728 H 16.57006 V 8.0802073 h 4.284606 Q 16.523489,0.32600304 21.553243,0 Z"
     style="fill:#cd853f;stroke:none"
     id="path14" />
  <path
     d="m 12.617484,0.60097632 c 0.16448,0 0.568806,0.19486804 0.189667,0.19657826 -0.06191,2.7924e-4 -0.198552,0.0188065 -0.299781,0.0188065 -0.120742,0 -0.191106,-0.0263588 -0.02419,-0.14148226 0.0404,-0.0278651 0.0769,-0.0722771 0.128488,-0.0738176 0.0019,-5.687e-5 0.0038,-8.497e-5 0.0058,-8.497e-5 z m -0.06366,-0.13045177 c -0.0067,0 -0.01137,2.8694e-4 -0.01382,8.5186e-4 -0.292318,0.0673157 -0.522851,0.31336066 -0.82658,0.39798782 -0.255589,0.0712139 -0.675365,0.16612867 -0.587678,0.54023067 0.117012,0.4992101 0.452689,0.9823734 0.347466,1.5048514 -0.06584,0.32693 -0.430516,0.3555333 -0.725007,0.3555333 -0.04902,0 -0.0961,-7.925e-4 -0.139525,-0.00113 C 8.6847539,3.2537374 7.1571383,3.172685 5.9315389,3.172685 3.921857,3.172685 2.7242344,3.3906182 1.9229368,4.4745853 0.59402096,6.272294 1.0488475,8.0704631 1.3794163,10.340322 1.2868945,9.0009973 0.84266032,6.891212 2.2194963,5.0690504 2.8011895,4.299213 3.7872275,3.9758208 4.6945486,3.7469502 5.1108687,3.6419341 5.6675218,3.60529 6.2813069,3.60529 c 1.4177716,0 3.14037,0.195517 4.1423661,0.195517 0.238369,0 0.435957,-0.011065 0.578957,-0.03846 0.386037,-0.073953 0.661475,-0.549506 0.627519,-0.94396 -0.04503,-0.52309 -0.457483,-1.0086824 -0.302687,-1.5369144 0.06885,-0.2349567 0.273734,-0.28786337 0.49665,-0.28786337 0.159527,0 0.328291,0.0270956 0.463046,0.0339548 0.145434,0.0074 0.288252,0.028131 0.427815,0.028131 0.184455,0 0.363224,-0.036208 0.53483,-0.18724072 C 13.57663,0.58080893 12.68471,0.47052455 12.553828,0.47052455 Z M 12.509623,0 c 0.01003,0 0.02015,2.4346942e-4 0.03038,7.4176363e-4 C 12.964366,0.02141554 13.390971,0.15186161 13.758399,0.36546425 14.142114,0.58853498 13.833851,1.0209881 13.574196,1.211817 13.335107,1.3875307 13.066538,1.5519011 12.76564,1.5519011 c -0.05802,0 -0.117252,-0.00611 -0.177702,-0.019435 -0.153485,-0.033826 -0.424563,-0.097685 -0.609821,-0.097685 -0.108912,0 -0.188163,0.02207 -0.196424,0.085288 -0.06801,0.5204719 0.486717,1.1519906 0.262934,1.7534141 -0.183496,0.4931508 -0.603528,0.9408867 -1.165073,0.9813783 -0.245857,0.017728 -0.491384,0.025243 -0.736671,0.025243 -1.2939637,0 -2.581243,-0.2091388 -3.8751322,-0.2313359 -0.041291,-7.032e-4 -0.08225,-0.00105 -0.1228774,-0.00105 -2.4790809,0 -3.7262597,1.2947159 -4.0104876,2.0989444 C 1.8590966,6.925601 1.6605151,7.7415207 1.7302178,8.5708812 1.8140837,9.5687777 1.960768,10.575611 1.8790349,11.574008 1.8069403,12.454685 1.5010142,13.308885 1.29207,14.16311 c -0.048809,0.199547 -0.1902142,0.299327 -0.32258813,0.299327 -0.14466633,0 -0.2785459,-0.119172 -0.26898896,-0.357535 0.0433934,-1.100565 0.29668121,-2.041067 0.2676119,-3.056256 C 0.94312153,10.176152 0.71967745,9.3362341 0.66822586,8.4611261 0.60857082,7.4464477 0.32613521,4.0289704 3.0940556,3.034094 3.8906048,2.7477895 4.9009832,2.670206 5.972111,2.670206 c 1.2673973,0 2.6198467,0.1086207 3.8037576,0.1086207 0.4426904,0 0.8618164,-0.015187 1.2441194,-0.056919 C 10.867492,2.1788266 10.575804,1.7053048 10.643711,1.1389624 10.697375,0.69140947 11.186688,0.52397168 11.558914,0.42230497 11.906249,0.32743691 12.141908,0 12.509623,0 Z"
     style="fill:#cd853f;stroke:none"
     id="path15" />
  <path
     d="m 8.7142082,12.236649 c -0.8529762,0 -1.9206465,0.438177 -2.437279,0.95481 -0.4519999,0.451999 -0.5110904,1.051266 -0.5276583,1.608101 h 5.9047481 c -0.01657,-0.556835 -0.07566,-1.156102 -0.527658,-1.608101 -0.516633,-0.516633 -1.5591769,-0.95481 -2.4121528,-0.95481 z m 0,-0.477406 c 1.0119036,0 2.1006928,0.467465 2.7387978,1.10557 0.654492,0.654492 0.728671,1.516125 0.728671,2.160887 v 0.251266 H 5.2467391 V 15.0257 c 0,-0.644762 0.049052,-1.506395 0.7035445,-2.160887 0.6381051,-0.638105 1.7520209,-1.10557 2.7639246,-1.10557 z"
     style="fill:#cd853f;stroke:none"
     id="path16" />
  <path
     d="M 14.57006,16.865345 V 18 H -9.801303e-7 v -1.134655 z"
     style="fill:#cd853f;stroke:none"
     id="path17" />
</svg>
